<svg width="32" height="32" viewBox="0 0 32 32" fill="none" xmlns="http://www.w3.org/2000/svg">
<path d="M11.3159 13H9.31592C8.52027 13 7.75721 13.3161 7.1946 13.8787C6.63199 14.4413 6.31592 15.2044 6.31592 16V25C6.31592 25.7956 6.63199 26.5587 7.1946 27.1213C7.75721 27.6839 8.52027 28 9.31592 28H21.3159C22.1116 28 22.8746 27.6839 23.4372 27.1213C23.9998 26.5587 24.3159 25.7956 24.3159 25V16C24.3159 15.2044 23.9998 14.4413 23.4372 13.8787C22.8746 13.3161 22.1116 13 21.3159 13H19.3159M19.3159 9L15.3159 5M15.3159 5L11.3159 9M15.3159 5V19" stroke="white" stroke-width="2" stroke-linecap="square" stroke-linejoin="round"/>
</svg>
