<svg width="32" height="32" viewBox="0 0 32 32" fill="none" xmlns="http://www.w3.org/2000/svg">
<path d="M9.05351 10C7.8378 10 6.76425 10.7579 6.40673 11.8686L3.43837 19.6784C3.3572 19.9306 3.31592 20.1929 3.31592 20.4568V25.3529C3.31592 26.8148 4.55575 28 6.08515 28H24.5467C26.076 28 27.3159 26.8148 27.3159 25.3529V20.4568C27.3159 20.1929 27.2747 19.9306 27.1935 19.6784L24.2252 11.8686C23.8676 10.7579 22.794 10 21.5784 10M3.31592 20.0588H8.06598C9.11488 20.0588 10.0738 20.6254 10.5429 21.5221L10.8582 22.1249C11.3273 23.0217 12.2862 23.5882 13.3351 23.5882H17.2968C18.3457 23.5882 19.3045 23.0217 19.7736 22.1249L20.089 21.5221C20.5581 20.6254 21.5169 20.0588 22.5658 20.0588H27.3159" stroke="white" stroke-width="2" stroke-linecap="square" stroke-linejoin="round"/>
<path d="M15.3159 6V14V6ZM15.3159 14L12.3159 11.0909L15.3159 14ZM15.3159 14L18.3159 11.0909L15.3159 14Z" fill="white"/>
<path d="M15.3159 6V14M15.3159 14L12.3159 11.0909M15.3159 14L18.3159 11.0909" stroke="white" stroke-width="2" stroke-linecap="square" stroke-linejoin="round"/>
</svg>
