<svg width="201" height="48" viewBox="0 0 201 48" fill="none" xmlns="http://www.w3.org/2000/svg">
<path opacity="0.5" fill-rule="evenodd" clip-rule="evenodd" d="M19.1429 9.6H9.57143V0H0V48H9.57143V19.2H19.1429V28.8H28.7143V19.2H38.2857V48H47.8571V0H38.2857V9.6H28.7143V19.2H19.1429V9.6ZM67.0001 9.6H76.5715V19.2H67.0001V48H57.4286V0H67.0001V9.6ZM86.1429 19.2V28.8H76.5715V19.2H86.1429ZM86.1429 19.2V9.6H95.7143V0H105.286V48H95.7143V19.2H86.1429ZM124.428 9.6H153.143V19.2H124.428V9.6ZM124.428 9.6H114.857V48H124.428V28.8H153.143V48H162.714V9.6H153.143V0H124.428V9.6ZM191.429 38.4V9.6H201V0H172.286V9.6H181.857V38.4H172.286V48H201V38.4H191.429Z" fill="#66C8FF"/>
</svg>
