<svg width="353" height="340" viewBox="0 0 353 340" fill="none" xmlns="http://www.w3.org/2000/svg">
<g filter="url(#filter0_d_452_4379)">
<circle cx="293.134" cy="35" r="7" fill="white"/>
</g>
<circle cx="293.134" cy="35" r="4.2" fill="#4FF3FD"/>
<g filter="url(#filter1_d_452_4379)">
<circle cx="293.134" cy="220" r="7" fill="white"/>
</g>
<circle cx="293.134" cy="220" r="4.2" fill="#4FF3FD"/>
<g filter="url(#filter2_d_452_4379)">
<circle cx="53.1343" cy="124" r="7" fill="white"/>
</g>
<circle cx="53.1343" cy="124" r="4.2" fill="#4FF3FD"/>
<path d="M5.82407 66.5L27.4238 0.5H287.445L265.845 66.5H5.82407Z" fill="black" stroke="#4FF3FD"/>
<path d="M68.0765 27.56H72.0365V29H66.3965V25.052L67.7885 24.248H70.3565V22.04H68.0765V23.12H66.3965V21.404L67.7885 20.6H70.6445L72.0365 21.404V24.884L70.6445 25.688H68.0765V27.56ZM80.1323 28.256L78.7403 29.06H75.4643L74.0723 28.256V21.344L75.4643 20.54H78.7403L80.1323 21.344V28.256ZM75.7523 21.98V27.62H78.4523V21.98H75.7523ZM83.85 27.56H87.81V29H82.17V25.052L83.562 24.248H86.13V22.04H83.85V23.12H82.17V21.404L83.562 20.6H86.418L87.81 21.404V24.884L86.418 25.688H83.85V27.56ZM94.8857 27.14V29H93.2297V27.14H89.2457V25.94L93.4097 20.6H94.8857V25.784H95.9177V27.14H94.8857ZM91.1057 25.784H93.2297V23.072H93.2057L91.1057 25.76V25.784ZM97.2347 26.624V25.1H101.051V26.624H97.2347ZM108.914 28.256L107.522 29.06H104.246L102.854 28.256V21.344L104.246 20.54H107.522L108.914 21.344V28.256ZM104.534 21.98V27.62H107.234V21.98H104.534ZM110.951 23.408V21.836L113.111 20.6H114.551V27.56H116.471V29H110.951V27.56H112.871V22.304L110.951 23.408Z" fill="#DADADA"/>
<path d="M68.2543 45.59V50H66.8543V40.2H72.5803V41.46H68.2543V44.33H71.7403V45.59H68.2543ZM75.2025 47.13V48.852H78.0165V47.13H75.2025ZM75.4685 50.07L73.8445 49.132V46.85L75.4685 45.912H78.0165V44.218H74.5445V43H77.7505L79.3745 43.938V50.07H79.0105L78.0165 49.496L77.0225 50.07H75.4685ZM82.9746 43V50H81.6166V43H82.9746ZM81.5466 41.278V39.78H83.0446V41.278H81.5466ZM89.1183 44.218H86.5703V50H85.2123V43H86.2343L86.5703 43.574L87.5643 43H89.1183V44.218ZM94.4305 50V40.2H95.8305V48.74H99.4565V50H94.4305ZM102.068 47.13V48.852H104.882V47.13H102.068ZM102.334 50.07L100.71 49.132V46.85L102.334 45.912H104.882V44.218H101.41V43H104.616L106.24 43.938V50.07H105.876L104.882 49.496L103.888 50.07H102.334ZM108.482 49.132V43H109.84V48.852H113.074V43H114.432V50.07H113.41L113.074 49.496L112.08 50.07H110.106L108.482 49.132ZM122.621 43.868V50H121.263V44.148H118.029V50H116.671V42.93H117.693L118.029 43.504L119.023 42.93H120.997L122.621 43.868ZM126.219 44.218V48.782H130.111V50H126.485L124.861 49.062V43.938L126.485 43H130.111V44.218H126.219ZM133.424 50H132.066V39.78H133.424V43.504L134.418 42.93H136.532L138.156 43.868V50H136.798V44.148H133.424V50ZM149.979 49.132L148.355 50.07H145.653L144.029 49.132V43.868L145.653 42.93H148.355L149.979 43.868V49.132ZM145.387 44.148V48.852H148.621V44.148H145.387ZM158.168 43.868V50H156.81V44.148H153.576V50H152.218V42.93H153.24L153.576 43.504L154.57 42.93H156.544L158.168 43.868ZM172.724 50V42.02H172.696L169.812 50H168.412L165.542 42.02H165.514V50H164.184V40.2H166.158L169.098 48.376H169.126L172.08 40.2H174.054V50H172.724ZM180.827 40.2L184.327 50H182.955L182.129 47.676H177.789L176.963 50H175.591L179.091 40.2H180.827ZM179.945 41.586L178.237 46.416H181.681L179.973 41.586H179.945ZM185.868 50V40.2H190.754L192.378 41.138V45.296L190.754 46.234H187.268V50H185.868ZM187.268 41.46V44.974H190.978V41.46H187.268ZM201.968 49.132L200.344 50.07H196.242L194.618 49.132V41.068L196.242 40.13H200.344L201.968 41.068V49.132ZM196.018 41.39V48.81H200.568V41.39H196.018ZM209.344 44.218V48.782H213.236V50H209.61L207.986 49.062V43.938L209.61 43H213.236V44.218H209.344ZM216.549 50H215.191V39.78H216.549V43.504L217.543 42.93H219.657L221.281 43.868V50H219.923V44.148H216.549V50ZM224.595 47.13V48.852H227.409V47.13H224.595ZM224.861 50.07L223.237 49.132V46.85L224.861 45.912H227.409V44.218H223.937V43H227.143L228.767 43.938V50.07H228.403L227.409 49.496L226.415 50.07H224.861ZM232.367 43V50H231.009V43H232.367ZM230.939 41.278V39.78H232.437V41.278H230.939ZM240.555 43.868V50H239.197V44.148H235.963V50H234.605V42.93H235.627L235.963 43.504L236.957 42.93H238.931L240.555 43.868Z" fill="white"/>
<circle cx="47.1343" cy="26" r="9.5" fill="black" stroke="#4FF3FD"/>
<path d="M43.4943 23.544V21.448L46.3743 19.8H48.2943V29.08H50.8543V31H43.4943V29.08H46.0543V22.072L43.4943 23.544Z" fill="#4FF3FD"/>
<path d="M6.82407 248.5L28.4238 182.5H286.445L264.845 248.5H6.82407Z" fill="black" stroke="#4FF3FD"/>
<path d="M70.0902 209.56H74.0502V211H68.4102V207.052L69.8022 206.248H72.3702V204.04H70.0902V205.12H68.4102V203.404L69.8022 202.6H72.6582L74.0502 203.404V206.884L72.6582 207.688H70.0902V209.56ZM82.146 210.256L80.754 211.06H77.478L76.086 210.256V203.344L77.478 202.54H80.754L82.146 203.344V210.256ZM77.766 203.98V209.62H80.466V203.98H77.766ZM85.8636 209.56H89.8236V211H84.1836V207.052L85.5756 206.248H88.1436V204.04H85.8636V205.12H84.1836V203.404L85.5756 202.6H88.4316L89.8236 203.404V206.884L88.4316 207.688H85.8636V209.56ZM96.8994 209.14V211H95.2434V209.14H91.2594V207.94L95.4234 202.6H96.8994V207.784H97.9314V209.14H96.8994ZM93.1194 207.784H95.2434V205.072H95.2194L93.1194 207.76V207.784ZM99.2483 208.624V207.1H103.064V208.624H99.2483ZM110.927 210.256L109.535 211.06H106.259L104.867 210.256V203.344L106.259 202.54H109.535L110.927 203.344V210.256ZM106.547 203.98V209.62H109.247V203.98H106.547ZM117.465 211.06H114.357L112.965 210.256V208.54H114.645V209.62H117.177V207.376H115.077V205.936H117.177V203.98H114.645V205.06H112.965V203.344L114.357 202.54H117.465L118.857 203.344V206.044L117.813 206.644V206.668L118.857 207.268V210.256L117.465 211.06Z" fill="#DADADA"/>
<path d="M68.8016 232V222.2H70.2016V230.74H73.8276V232H68.8016ZM76.4388 229.13V230.852H79.2528V229.13H76.4388ZM76.7048 232.07L75.0808 231.132V228.85L76.7048 227.912H79.2528V226.218H75.7808V225H78.9868L80.6108 225.938V232.07H80.2468L79.2528 231.496L78.2588 232.07H76.7048ZM82.853 231.132V225H84.211V230.852H87.445V225H88.803V232.07H87.781L87.445 231.496L86.451 232.07H84.477L82.853 231.132ZM96.9924 225.868V232H95.6344V226.148H92.4004V232H91.0424V224.93H92.0644L92.4004 225.504L93.3944 224.93H95.3684L96.9924 225.868ZM100.59 226.218V230.782H104.482V232H100.856L99.2319 231.062V225.938L100.856 225H104.482V226.218H100.59ZM107.795 232H106.437V221.78H107.795V225.504L108.789 224.93H110.903L112.527 225.868V232H111.169V226.148H107.795V232ZM119.758 232H118.4V221.78H119.758V225.504L120.752 224.93H122.866L124.49 225.868V232H123.132V226.148H119.758V232ZM132.676 231.132L131.052 232.07H128.35L126.726 231.132V225.868L128.35 224.93H131.052L132.676 225.868V231.132ZM128.084 226.148V230.852H131.318V226.148H128.084ZM136.539 224.93H138.653L139.647 225.504V221.78H141.005V232.07H139.983L139.647 231.496L138.653 232.07H136.539L134.915 231.132V225.868L136.539 224.93ZM139.647 230.852V226.148H136.273V230.852H139.647ZM144.866 232L143.242 231.062V221.78H144.6V230.782H146.28V232H144.866ZM153.215 230.782V232H149.309L147.685 231.062V225.868L149.309 224.93H151.591L153.215 225.868V228.976H149.043V230.782H153.215ZM149.043 226.148V227.758H151.857V226.148H149.043ZM159.357 226.218H156.809V232H155.451V225H156.473L156.809 225.574L157.803 225H159.357V226.218ZM166.881 224.93H168.995L170.619 225.868V231.132L168.995 232.07H166.881L165.887 231.496L164.893 232.07H164.529V221.78H165.887V225.504L166.881 224.93ZM165.887 226.148V230.852H169.261V226.148H165.887ZM178.385 230.782V232H174.479L172.855 231.062V225.868L174.479 224.93H176.761L178.385 225.868V228.976H174.213V230.782H178.385ZM174.213 226.148V227.758H177.027V226.148H174.213ZM186.571 225.868V232H185.213V226.148H181.979V232H180.621V224.93H181.643L181.979 225.504L182.973 224.93H184.947L186.571 225.868ZM194.34 230.782V232H190.434L188.81 231.062V225.868L190.434 224.93H192.716L194.34 225.868V228.976H190.168V230.782H194.34ZM190.168 226.148V227.758H192.982V226.148H190.168ZM196.016 226.218V225H197.304V222.718L198.928 221.78H200.342V222.998H198.662V225H200.342V226.218H198.662V232H197.304V226.218H196.016ZM203.375 225V232H202.017V225H203.375ZM201.947 223.278V221.78H203.445V223.278H201.947ZM205.053 226.218V225H206.341V223.824L207.699 223.04V225H209.379V226.218H207.699V230.782H209.379V232H207.965L206.341 231.062V226.218H205.053ZM216.605 228.78V231.062L214.981 232H211.341V230.782H215.247V229.06H212.965L211.341 228.122V225.938L212.965 225H216.465V226.218H212.699V227.842H214.981L216.605 228.78Z" fill="white"/>
<circle cx="49.1343" cy="208" r="9.5" fill="black" stroke="#4FF3FD"/>
<path d="M51.4943 213.08H47.3503L45.4943 212.008V209.72H47.7343V211.16H51.1103V208.168H48.3103V206.248H51.1103V203.64H47.7343V205.08H45.4943V202.792L47.3503 201.72H51.4943L53.3503 202.792V206.392L51.9583 207.192V207.224L53.3503 208.024V212.008L51.4943 213.08Z" fill="#4FF3FD"/>
<path d="M57.8241 157.5L79.4238 91.5H319.445L297.845 157.5H57.8241Z" fill="black" stroke="#4FF3FD"/>
<path d="M120.219 118.56H124.179V120H118.539V116.052L119.931 115.248H122.499V113.04H120.219V114.12H118.539V112.404L119.931 111.6H122.787L124.179 112.404V115.884L122.787 116.688H120.219V118.56ZM132.275 119.256L130.883 120.06H127.607L126.215 119.256V112.344L127.607 111.54H130.883L132.275 112.344V119.256ZM127.895 112.98V118.62H130.595V112.98H127.895ZM135.993 118.56H139.953V120H134.313V116.052L135.705 115.248H138.273V113.04H135.993V114.12H134.313V112.404L135.705 111.6H138.561L139.953 112.404V115.884L138.561 116.688H135.993V118.56ZM147.028 118.14V120H145.372V118.14H141.388V116.94L145.552 111.6H147.028V116.784H148.06V118.14H147.028ZM143.248 116.784H145.372V114.072H145.348L143.248 116.76V116.784ZM149.377 117.624V116.1H153.193V117.624H149.377ZM161.056 119.256L159.664 120.06H156.388L154.996 119.256V112.344L156.388 111.54H159.664L161.056 112.344V119.256ZM156.676 112.98V118.62H159.376V112.98H156.676ZM164.774 118.56H168.734V120H163.094V116.052L164.486 115.248H167.054V113.04H164.774V114.12H163.094V112.404L164.486 111.6H167.342L168.734 112.404V115.884L167.342 116.688H164.774V118.56Z" fill="#DADADA"/>
<path d="M127.179 141V133.02H127.151L124.267 141H122.867L119.997 133.02H119.969V141H118.639V131.2H120.613L123.553 139.376H123.581L126.535 131.2H128.509V141H127.179ZM130.886 140.132V134H132.244V139.852H135.478V134H136.836V141.07H135.814L135.478 140.496L134.484 141.07H132.51L130.886 140.132ZM140.7 141L139.076 140.062V130.78H140.434V139.782H142.114V141H140.7ZM142.959 135.218V134H144.247V132.824L145.605 132.04V134H147.285V135.218H145.605V139.782H147.285V141H145.871L144.247 140.062V135.218H142.959ZM150.606 134V141H149.248V134H150.606ZM149.178 132.278V130.78H150.676V132.278H149.178ZM157.309 141.07H155.195L154.201 140.496V143.8H152.843V133.93H153.865L154.201 134.504L155.195 133.93H157.309L158.933 134.868V140.132L157.309 141.07ZM154.201 135.148V139.852H157.575V135.148H154.201ZM162.793 141L161.169 140.062V130.78H162.527V139.782H164.207V141H162.793ZM171.143 139.782V141H167.237L165.613 140.062V134.868L167.237 133.93H169.519L171.143 134.868V137.976H166.971V139.782H171.143ZM166.971 135.148V136.758H169.785V135.148H166.971ZM178.555 133.594V141H177.155V131.2H178.429L183.497 138.606H183.525V131.2H184.925V141H183.651L178.583 133.594H178.555ZM188.85 136.59V141H187.45V131.2H193.176V132.46H188.85V135.33H192.336V136.59H188.85ZM198.206 132.46V141H196.806V132.46H194.02V131.2H200.992V132.46H198.206ZM207.788 141L206.164 140.062V130.78H207.522V139.782H209.202V141H207.788ZM211.685 138.13V139.852H214.499V138.13H211.685ZM211.951 141.07L210.327 140.132V137.85L211.951 136.912H214.499V135.218H211.027V134H214.233L215.857 134.938V141.07H215.493L214.499 140.496L213.505 141.07H211.951ZM218.099 140.132V134H219.457V139.852H222.691V134H224.049V141.07H223.027L222.691 140.496L221.697 141.07H219.723L218.099 140.132ZM232.239 134.868V141H230.881V135.148H227.647V141H226.289V133.93H227.311L227.647 134.504L228.641 133.93H230.615L232.239 134.868ZM235.836 135.218V139.782H239.728V141H236.102L234.478 140.062V134.938L236.102 134H239.728V135.218H235.836ZM243.041 141H241.683V130.78H243.041V134.504L244.035 133.93H246.149L247.773 134.868V141H246.415V135.148H243.041V141Z" fill="white"/>
<circle cx="99.1343" cy="117" r="9.5" fill="black" stroke="#4FF3FD"/>
<path d="M97.7343 120.08H103.014V122H95.4943V116.736L97.3503 115.664H100.774V112.72H97.7343V114.16H95.4943V111.872L97.3503 110.8H101.158L103.014 111.872V116.512L101.158 117.584H97.7343V120.08Z" fill="#4FF3FD"/>
<path d="M57.8241 339.5L79.4238 273.5H319.445L297.845 339.5H57.8241Z" fill="black" stroke="#4FF3FD"/>
<path d="M120.243 300.56H124.203V302H118.563V298.052L119.955 297.248H122.523V295.04H120.243V296.12H118.563V294.404L119.955 293.6H122.811L124.203 294.404V297.884L122.811 298.688H120.243V300.56ZM132.298 301.256L130.906 302.06H127.63L126.238 301.256V294.344L127.63 293.54H130.906L132.298 294.344V301.256ZM127.918 294.98V300.62H130.618V294.98H127.918ZM136.016 300.56H139.976V302H134.336V298.052L135.728 297.248H138.296V295.04H136.016V296.12H134.336V294.404L135.728 293.6H138.584L139.976 294.404V297.884L138.584 298.688H136.016V300.56ZM147.052 300.14V302H145.396V300.14H141.412V298.94L145.576 293.6H147.052V298.784H148.084V300.14H147.052ZM143.272 298.784H145.396V296.072H145.372L143.272 298.76V298.784ZM149.401 299.624V298.1H153.217V299.624H149.401ZM161.08 301.256L159.688 302.06H156.412L155.02 301.256V294.344L156.412 293.54H159.688L161.08 294.344V301.256ZM156.7 294.98V300.62H159.4V294.98H156.7ZM168.157 300.14V302H166.501V300.14H162.517V298.94L166.681 293.6H168.157V298.784H169.189V300.14H168.157ZM164.377 298.784H166.501V296.072H166.477L164.377 298.76V298.784Z" fill="#DADADA"/>
<path d="M118.517 323V313.2H119.917V321.74H123.543V323H118.517ZM126.155 320.13V321.852H128.969V320.13H126.155ZM126.421 323.07L124.797 322.132V319.85L126.421 318.912H128.969V317.218H125.497V316H128.703L130.327 316.938V323.07H129.963L128.969 322.496L127.975 323.07H126.421ZM132.569 322.132V316H133.927V321.852H137.161V316H138.519V323.07H137.497L137.161 322.496L136.167 323.07H134.193L132.569 322.132ZM146.708 316.868V323H145.35V317.148H142.116V323H140.758V315.93H141.78L142.116 316.504L143.11 315.93H145.084L146.708 316.868ZM150.306 317.218V321.782H154.198V323H150.572L148.948 322.062V316.938L150.572 316H154.198V317.218H150.306ZM157.511 323H156.153V312.78H157.511V316.504L158.505 315.93H160.619L162.243 316.868V323H160.885V317.148H157.511V323ZM175.606 322.062L173.982 323H168.256V313.2H173.982L175.606 314.138V322.062ZM169.656 314.46V321.74H174.206V314.46H169.656ZM179.065 320.13V321.852H181.879V320.13H179.065ZM179.331 323.07L177.707 322.132V319.85L179.331 318.912H181.879V317.218H178.407V316H181.613L183.237 316.938V323.07H182.873L181.879 322.496L180.885 323.07H179.331ZM189.945 323.07H187.831L186.837 322.496V325.8H185.479V315.93H186.501L186.837 316.504L187.831 315.93H189.945L191.569 316.868V322.132L189.945 323.07ZM186.837 317.148V321.852H190.211V317.148H186.837ZM198.271 323.07H196.157L195.163 322.496V325.8H193.805V315.93H194.827L195.163 316.504L196.157 315.93H198.271L199.895 316.868V322.132L198.271 323.07ZM195.163 317.148V321.852H198.537V317.148H195.163Z" fill="white"/>
<circle cx="99.1343" cy="299" r="9.5" fill="black" stroke="#4FF3FD"/>
<path d="M97.7343 302.08H103.014V304H95.4943V298.736L97.3503 297.664H100.774V294.72H97.7343V296.16H95.4943V293.872L97.3503 292.8H101.158L103.014 293.872V298.512L101.158 299.584H97.7343V302.08Z" fill="#4FF3FD"/>
<path d="M346.207 46.9938L346.555 46.6344L346.207 46.9938ZM351.633 65.4579L351.134 65.4307L351.633 65.4579ZM315.634 121.5L321.384 120.976L318.056 116.259L315.634 121.5ZM300.134 35.5C301.522 35.5 302.873 35.5162 304.186 35.5476L304.21 34.5479C302.888 34.5163 301.53 34.5 300.134 34.5V35.5ZM312.248 35.9603C315.13 36.1932 317.797 36.5083 320.263 36.8914L320.417 35.9033C317.924 35.5162 315.234 35.1983 312.328 34.9635L312.248 35.9603ZM328.154 38.5C331.053 39.2514 333.579 40.1082 335.778 41.0279L336.164 40.1053C333.917 39.1658 331.346 38.2942 328.405 37.5319L328.154 38.5ZM342.793 44.8313C343.989 45.6741 345.001 46.5228 345.859 47.3531L346.555 46.6344C345.659 45.7674 344.606 44.8859 343.37 44.014L342.793 44.8313ZM345.859 47.3531C347.032 48.4876 347.972 49.7821 348.716 51.1912L349.6 50.7242C348.811 49.2304 347.81 47.8489 346.555 46.6344L345.859 47.3531ZM351.119 60.5324C351.229 62.1632 351.222 63.8108 351.134 65.4307L352.132 65.4852C352.223 63.8319 352.23 62.1429 352.116 60.465L351.119 60.5324ZM351.134 65.4307C351.062 66.7448 350.936 68.1673 350.737 69.6835L351.728 69.8141C351.931 68.2715 352.059 66.8236 352.132 65.4852L351.134 65.4307ZM349.006 78.0624C348.285 80.6204 347.344 83.3197 346.124 86.1178L347.041 86.5173C348.279 83.6759 349.235 80.9337 349.969 78.3339L349.006 78.0624ZM342.204 93.7318C340.813 96.0605 339.216 98.428 337.381 100.813L338.174 101.423C340.032 99.0065 341.652 96.6067 343.063 94.2446L342.204 93.7318ZM331.794 107.322C329.908 109.302 327.843 111.281 325.582 113.247L326.238 114.002C328.522 112.015 330.61 110.015 332.518 108.012L331.794 107.322ZM346.207 46.9938L346.902 46.2751L346.207 46.9938ZM351.633 65.4579L350.635 65.4034L351.633 65.4579ZM315.634 121.5L327.134 120.452L320.477 111.017L315.634 121.5ZM300.134 36C301.519 36 302.865 36.0161 304.174 36.0474L304.222 34.048C302.896 34.0163 301.534 34 300.134 34V36ZM312.208 36.4586C315.079 36.6906 317.733 37.0044 320.186 37.3855L320.493 35.4092C317.988 35.0201 315.285 34.7008 312.369 34.4651L312.208 36.4586ZM328.028 38.984C330.907 39.7299 333.409 40.5794 335.585 41.4892L336.356 39.6441C334.086 38.6946 331.493 37.8157 328.53 37.0479L328.028 38.984ZM342.505 45.2399C343.68 46.0682 344.673 46.9005 345.512 47.7124L346.902 46.2751C345.987 45.3897 344.915 44.4918 343.658 43.6054L342.505 45.2399ZM345.512 47.7124C346.643 48.807 347.552 50.0579 348.274 51.4247L350.042 50.4907C349.231 48.9545 348.199 47.5295 346.902 46.2751L345.512 47.7124ZM350.62 60.5661C350.728 62.1733 350.722 63.8003 350.635 65.4034L352.632 65.5125C352.723 63.8424 352.73 62.1328 352.615 60.4313L350.62 60.5661ZM350.635 65.4034C350.564 66.7055 350.439 68.1152 350.241 69.6183L352.224 69.8794C352.429 68.3236 352.558 66.863 352.632 65.5125L350.635 65.4034ZM348.525 77.9267C347.809 80.4637 346.876 83.1416 345.666 85.9181L347.5 86.717C348.747 83.854 349.711 81.0904 350.45 78.4697L348.525 77.9267ZM341.775 93.4755C340.394 95.7874 338.807 98.1387 336.985 100.508L338.57 101.728C340.44 99.2958 342.071 96.8797 343.492 94.501L341.775 93.4755ZM331.432 106.977C329.557 108.946 327.503 110.914 325.254 112.87L326.567 114.379C328.862 112.382 330.961 110.371 332.88 108.357L331.432 106.977Z" fill="#4FF3FD" fill-opacity="0.8"/>
<path d="M346.207 231.994L346.555 231.634L346.207 231.994ZM351.633 250.458L351.134 250.431L351.633 250.458ZM315.634 306.5L321.384 305.976L318.056 301.259L315.634 306.5ZM300.134 220.5C301.522 220.5 302.873 220.516 304.186 220.548L304.21 219.548C302.888 219.516 301.53 219.5 300.134 219.5V220.5ZM312.248 220.96C315.13 221.193 317.797 221.508 320.263 221.891L320.417 220.903C317.924 220.516 315.234 220.198 312.328 219.963L312.248 220.96ZM328.154 223.5C331.053 224.251 333.579 225.108 335.778 226.028L336.164 225.105C333.917 224.166 331.346 223.294 328.405 222.532L328.154 223.5ZM342.793 229.831C343.989 230.674 345.001 231.523 345.859 232.353L346.555 231.634C345.659 230.767 344.606 229.886 343.37 229.014L342.793 229.831ZM345.859 232.353C347.032 233.488 347.972 234.782 348.716 236.191L349.6 235.724C348.811 234.23 347.81 232.849 346.555 231.634L345.859 232.353ZM351.119 245.532C351.229 247.163 351.222 248.811 351.134 250.431L352.132 250.485C352.223 248.832 352.23 247.143 352.116 245.465L351.119 245.532ZM351.134 250.431C351.062 251.745 350.936 253.167 350.737 254.684L351.728 254.814C351.931 253.271 352.059 251.824 352.132 250.485L351.134 250.431ZM349.006 263.062C348.285 265.62 347.344 268.32 346.124 271.118L347.041 271.517C348.279 268.676 349.235 265.934 349.969 263.334L349.006 263.062ZM342.204 278.732C340.813 281.06 339.216 283.428 337.381 285.813L338.174 286.423C340.032 284.007 341.652 281.607 343.063 279.245L342.204 278.732ZM331.794 292.322C329.908 294.302 327.843 296.281 325.582 298.247L326.238 299.002C328.522 297.015 330.61 295.015 332.518 293.012L331.794 292.322ZM346.207 231.994L346.902 231.275L346.207 231.994ZM351.633 250.458L350.635 250.403L351.633 250.458ZM315.634 306.5L327.134 305.452L320.477 296.017L315.634 306.5ZM300.134 221C301.519 221 302.865 221.016 304.174 221.047L304.222 219.048C302.896 219.016 301.534 219 300.134 219V221ZM312.208 221.459C315.079 221.691 317.733 222.004 320.186 222.386L320.493 220.409C317.988 220.02 315.285 219.701 312.369 219.465L312.208 221.459ZM328.028 223.984C330.907 224.73 333.409 225.579 335.585 226.489L336.356 224.644C334.086 223.695 331.493 222.816 328.53 222.048L328.028 223.984ZM342.505 230.24C343.68 231.068 344.673 231.901 345.512 232.712L346.902 231.275C345.987 230.39 344.915 229.492 343.658 228.605L342.505 230.24ZM345.512 232.712C346.643 233.807 347.552 235.058 348.274 236.425L350.042 235.491C349.231 233.955 348.199 232.529 346.902 231.275L345.512 232.712ZM350.62 245.566C350.728 247.173 350.722 248.8 350.635 250.403L352.632 250.512C352.723 248.842 352.73 247.133 352.615 245.431L350.62 245.566ZM350.635 250.403C350.564 251.705 350.439 253.115 350.241 254.618L352.224 254.879C352.429 253.324 352.558 251.863 352.632 250.512L350.635 250.403ZM348.525 262.927C347.809 265.464 346.876 268.142 345.666 270.918L347.5 271.717C348.747 268.854 349.711 266.09 350.45 263.47L348.525 262.927ZM341.775 278.475C340.394 280.787 338.807 283.139 336.985 285.508L338.57 286.728C340.44 284.296 342.071 281.88 343.492 279.501L341.775 278.475ZM331.432 291.977C329.557 293.946 327.503 295.914 325.254 297.87L326.567 299.379C328.862 297.382 330.961 295.371 332.88 293.357L331.432 291.977Z" fill="#4FF3FD" fill-opacity="0.8"/>
<path d="M5.09391 185.675L4.61762 185.828L5.09391 185.675ZM15.1343 210.5L10.3927 207.206L15.6161 204.747L15.1343 210.5ZM57.7128 125.5C56.4156 125.5 55.1254 125.542 53.8443 125.625L53.7798 124.627C55.0823 124.543 56.3939 124.5 57.7128 124.5V125.5ZM46.176 126.619C43.622 127.119 41.1239 127.781 38.6992 128.591L38.3822 127.643C40.8476 126.819 43.3874 126.146 45.9838 125.638L46.176 126.619ZM31.5436 131.515C29.2041 132.656 26.9627 133.944 24.839 135.363L24.2832 134.532C26.445 133.087 28.7256 131.777 31.1052 130.616L31.5436 131.515ZM18.7365 140.098C16.8031 141.835 15.0178 143.699 13.4018 145.674L12.6279 145.041C14.2771 143.025 16.098 141.124 18.0682 139.354L18.7365 140.098ZM9.02342 152.022C7.74335 154.26 6.66384 156.598 5.8077 159.02L4.86489 158.686C5.74168 156.206 6.84656 153.814 8.15537 151.525L9.02342 152.022ZM3.93756 166.483C3.55922 168.985 3.41365 171.552 3.5223 174.167L2.52316 174.209C2.41184 171.529 2.56098 168.898 2.9488 166.334L3.93756 166.483ZM4.55036 181.795C4.83188 183.031 5.17112 184.274 5.5702 185.523L4.61762 185.828C4.21001 184.552 3.86326 183.281 3.57536 182.018L4.55036 181.795ZM5.5702 185.523C5.90125 186.56 6.2513 187.616 6.62112 188.692L5.67543 189.017C5.30328 187.934 4.95094 186.871 4.61762 185.828L5.5702 185.523ZM8.9184 194.964C9.69434 196.965 10.5343 199.027 11.4424 201.152L10.5228 201.545C9.61045 199.41 8.76622 197.337 7.98609 195.326L8.9184 194.964ZM5.09391 185.675L4.14133 185.98L5.09391 185.675ZM15.1343 210.5L5.65103 203.912L16.098 198.993L15.1343 210.5ZM57.7128 126C56.4264 126 55.147 126.042 53.8765 126.124L53.7476 124.128C55.0607 124.043 56.3831 124 57.7128 124V126ZM46.272 127.11C43.7393 127.606 41.2621 128.262 38.8577 129.065L38.2237 127.169C40.7094 126.338 43.27 125.66 45.8877 125.147L46.272 127.11ZM31.7627 131.965C29.4433 133.096 27.2216 134.372 25.1168 135.779L24.0053 134.116C26.1861 132.658 28.4863 131.337 30.8861 130.167L31.7627 131.965ZM19.0707 140.47C17.1557 142.19 15.3881 144.036 13.7888 145.99L12.2409 144.724C13.9068 142.688 15.7454 140.769 17.734 138.982L19.0707 140.47ZM9.45744 152.27C8.19175 154.483 7.12492 156.794 6.27911 159.186L4.39349 158.52C5.2806 156.01 6.39816 153.591 7.72134 151.277L9.45744 152.27ZM4.43194 166.558C4.05834 169.029 3.91455 171.563 4.02187 174.147L2.02359 174.23C1.91093 171.517 2.06186 168.855 2.45442 166.259L4.43194 166.558ZM5.03787 181.684C5.3162 182.906 5.65168 184.135 6.04649 185.371L4.14133 185.98C3.72945 184.69 3.37895 183.406 3.08785 182.129L5.03787 181.684ZM6.04649 185.371C6.37641 186.404 6.72531 187.457 7.09397 188.529L5.20258 189.179C4.82927 188.093 4.47577 187.027 4.14133 185.98L6.04649 185.371ZM9.38455 194.784C10.1584 196.778 10.9962 198.835 11.9022 200.956L10.063 201.741C9.14852 199.601 8.30217 197.523 7.51994 195.507L9.38455 194.784Z" fill="#4FF3FD" fill-opacity="0.8"/>
<defs>
<filter id="filter0_d_452_4379" x="266.134" y="8" width="54" height="54" filterUnits="userSpaceOnUse" color-interpolation-filters="sRGB">
<feFlood flood-opacity="0" result="BackgroundImageFix"/>
<feColorMatrix in="SourceAlpha" type="matrix" values="0 0 0 0 0 0 0 0 0 0 0 0 0 0 0 0 0 0 127 0" result="hardAlpha"/>
<feOffset/>
<feGaussianBlur stdDeviation="10"/>
<feComposite in2="hardAlpha" operator="out"/>
<feColorMatrix type="matrix" values="0 0 0 0 1 0 0 0 0 1 0 0 0 0 1 0 0 0 0.5 0"/>
<feBlend mode="normal" in2="BackgroundImageFix" result="effect1_dropShadow_452_4379"/>
<feBlend mode="normal" in="SourceGraphic" in2="effect1_dropShadow_452_4379" result="shape"/>
</filter>
<filter id="filter1_d_452_4379" x="266.134" y="193" width="54" height="54" filterUnits="userSpaceOnUse" color-interpolation-filters="sRGB">
<feFlood flood-opacity="0" result="BackgroundImageFix"/>
<feColorMatrix in="SourceAlpha" type="matrix" values="0 0 0 0 0 0 0 0 0 0 0 0 0 0 0 0 0 0 127 0" result="hardAlpha"/>
<feOffset/>
<feGaussianBlur stdDeviation="10"/>
<feComposite in2="hardAlpha" operator="out"/>
<feColorMatrix type="matrix" values="0 0 0 0 1 0 0 0 0 1 0 0 0 0 1 0 0 0 0.5 0"/>
<feBlend mode="normal" in2="BackgroundImageFix" result="effect1_dropShadow_452_4379"/>
<feBlend mode="normal" in="SourceGraphic" in2="effect1_dropShadow_452_4379" result="shape"/>
</filter>
<filter id="filter2_d_452_4379" x="26.1343" y="97" width="54" height="54" filterUnits="userSpaceOnUse" color-interpolation-filters="sRGB">
<feFlood flood-opacity="0" result="BackgroundImageFix"/>
<feColorMatrix in="SourceAlpha" type="matrix" values="0 0 0 0 0 0 0 0 0 0 0 0 0 0 0 0 0 0 127 0" result="hardAlpha"/>
<feOffset/>
<feGaussianBlur stdDeviation="10"/>
<feComposite in2="hardAlpha" operator="out"/>
<feColorMatrix type="matrix" values="0 0 0 0 1 0 0 0 0 1 0 0 0 0 1 0 0 0 0.5 0"/>
<feBlend mode="normal" in2="BackgroundImageFix" result="effect1_dropShadow_452_4379"/>
<feBlend mode="normal" in="SourceGraphic" in2="effect1_dropShadow_452_4379" result="shape"/>
</filter>
</defs>
</svg>
