<svg width="1224" height="260" viewBox="0 0 1224 260" fill="none" xmlns="http://www.w3.org/2000/svg">
<g filter="url(#filter0_d_209_2797)">
<circle cx="396" cy="40" r="12" fill="white"/>
</g>
<circle cx="396" cy="40" r="7.2" fill="#4FF3FD"/>
<path d="M628 40L623 37.1132V42.8868L628 40ZM408 40.5H411.929V39.5H408V40.5ZM419.786 40.5H427.643V39.5H419.786V40.5ZM435.5 40.5H443.357V39.5H435.5V40.5ZM451.214 40.5H459.071V39.5H451.214V40.5ZM466.929 40.5H474.786V39.5H466.929V40.5ZM482.643 40.5H490.5V39.5H482.643V40.5ZM498.357 40.5H506.214V39.5H498.357V40.5ZM514.071 40.5H521.929V39.5H514.071V40.5ZM529.786 40.5H537.643V39.5H529.786V40.5ZM545.5 40.5H553.357V39.5H545.5V40.5ZM561.214 40.5H569.071V39.5H561.214V40.5ZM576.929 40.5H584.786V39.5H576.929V40.5ZM592.643 40.5H600.5V39.5H592.643V40.5ZM608.357 40.5H616.214V39.5H608.357V40.5ZM628 40L618 34.2265V45.7735L628 40ZM408 41H411.929V39H408V41ZM419.786 41H427.643V39H419.786V41ZM435.5 41H443.357V39H435.5V41ZM451.214 41H459.071V39H451.214V41ZM466.929 41H474.786V39H466.929V41ZM482.643 41H490.5V39H482.643V41ZM498.357 41H506.214V39H498.357V41ZM514.071 41H521.929V39H514.071V41ZM529.786 41H537.643V39H529.786V41ZM545.5 41H553.357V39H545.5V41ZM561.214 41H569.071V39H561.214V41ZM576.929 41H584.786V39H576.929V41ZM592.643 41H600.5V39H592.643V41ZM608.357 41H616.214V39H608.357V41Z" fill="#4FF3FD" fill-opacity="0.8"/>
<g filter="url(#filter1_d_209_2797)">
<circle cx="1040" cy="45" r="12" fill="white"/>
</g>
<circle cx="1040" cy="45" r="7.2" fill="#4FF3FD"/>
<path d="M1104.13 52.2284L1104.24 51.7392L1104.13 52.2284ZM1174.62 197.54L1174.24 197.214L1174.62 197.54ZM1120.3 226L1125.39 228.723L1125.21 222.953L1120.3 226ZM1052 45.5C1053.39 45.5 1054.85 45.5333 1056.37 45.5981L1056.41 44.599C1054.88 44.5337 1053.41 44.5 1052 44.5V45.5ZM1065.1 46.2422C1067.88 46.5207 1070.78 46.8727 1073.8 47.2901L1073.94 46.2995C1070.91 45.8807 1067.99 45.5271 1065.2 45.2472L1065.1 46.2422ZM1082.47 48.6133C1085.29 49.0797 1088.18 49.5906 1091.12 50.1403L1091.3 49.1573C1088.35 48.6064 1085.46 48.0944 1082.64 47.6267L1082.47 48.6133ZM1099.73 51.8253C1101.15 52.1155 1102.59 52.4132 1104.03 52.7176L1104.24 51.7392C1102.79 51.4343 1101.36 51.1362 1099.93 50.8454L1099.73 51.8253ZM1104.03 52.7176C1105.35 52.9962 1106.66 53.2975 1107.96 53.6209L1108.2 52.6503C1106.89 52.3242 1105.57 52.0203 1104.24 51.7392L1104.03 52.7176ZM1115.71 55.8326C1118.28 56.6624 1120.81 57.5778 1123.29 58.5739L1123.66 57.6457C1121.16 56.6412 1118.61 55.718 1116.02 54.8811L1115.71 55.8326ZM1130.67 61.8272C1133.1 62.9986 1135.48 64.2481 1137.81 65.5704L1138.3 64.7008C1135.95 63.3675 1133.55 62.1076 1131.1 60.9264L1130.67 61.8272ZM1144.68 69.7829C1146.93 71.2698 1149.12 72.8266 1151.25 74.4477L1151.86 73.6521C1149.71 72.0174 1147.5 70.4477 1145.23 68.9483L1144.68 69.7829ZM1157.5 79.5473C1159.53 81.3252 1161.5 83.1642 1163.38 85.0585L1164.09 84.353C1162.19 82.4423 1160.21 80.5875 1158.16 78.7945L1157.5 79.5473ZM1168.86 90.9632C1170.63 93.01 1172.31 95.1086 1173.91 97.2528L1174.71 96.6561C1173.1 94.4921 1171.4 92.3745 1169.62 90.3094L1168.86 90.9632ZM1178.47 103.895C1179.91 106.18 1181.25 108.507 1182.49 110.868L1183.38 110.403C1182.13 108.018 1180.77 105.668 1179.31 103.361L1178.47 103.895ZM1185.93 118.154C1186.97 120.643 1187.9 123.162 1188.71 125.703L1189.66 125.4C1188.85 122.83 1187.91 120.283 1186.85 117.767L1185.93 118.154ZM1190.78 133.479C1191.35 136.112 1191.78 138.76 1192.07 141.416L1193.06 141.308C1192.77 138.616 1192.33 135.934 1191.76 133.269L1190.78 133.479ZM1192.51 149.441C1192.52 152.117 1192.37 154.794 1192.07 157.463L1193.07 157.574C1193.37 154.867 1193.52 152.153 1193.51 149.44L1192.51 149.441ZM1190.72 165.387C1190.12 167.97 1189.38 170.54 1188.47 173.088L1189.41 173.424C1190.33 170.839 1191.09 168.232 1191.7 165.612L1190.72 165.387ZM1185.35 180.496C1184.19 182.863 1182.89 185.206 1181.43 187.518L1182.27 188.051C1183.75 185.709 1185.07 183.335 1186.25 180.935L1185.35 180.496ZM1176.81 194.081C1175.99 195.133 1175.13 196.178 1174.24 197.214L1175 197.866C1175.9 196.818 1176.76 195.761 1177.6 194.696L1176.81 194.081ZM1174.24 197.214C1173.38 198.214 1172.5 199.197 1171.62 200.16L1172.35 200.837C1173.25 199.865 1174.13 198.875 1175 197.866L1174.24 197.214ZM1166.07 205.76C1164.14 207.57 1162.15 209.285 1160.1 210.892L1160.72 211.679C1162.79 210.053 1164.8 208.319 1166.76 206.49L1166.07 205.76ZM1153.69 215.445C1151.46 216.86 1149.18 218.146 1146.83 219.29L1147.27 220.189C1149.65 219.028 1151.97 217.723 1154.22 216.289L1153.69 215.445ZM1139.58 222.295C1137.12 223.138 1134.59 223.826 1132.01 224.345L1132.2 225.326C1134.83 224.797 1137.4 224.098 1139.9 223.241L1139.58 222.295ZM1104.13 52.2284L1104.34 51.25L1104.13 52.2284ZM1174.62 197.54L1173.86 196.888L1174.62 197.54ZM1120.3 226L1130.48 231.447L1130.11 219.906L1120.3 226ZM1052 46C1053.38 46 1054.83 46.0331 1056.34 46.0976L1056.43 44.0995C1054.89 44.0339 1053.42 44 1052 44V46ZM1065.05 46.7398C1067.82 47.0175 1070.72 47.3687 1073.74 47.7854L1074.01 45.8042C1070.97 45.3846 1068.05 45.0303 1065.25 44.7497L1065.05 46.7398ZM1082.39 49.1066C1085.2 49.5724 1088.09 50.0826 1091.03 50.6318L1091.39 48.6658C1088.44 48.1144 1085.55 47.6017 1082.72 47.1335L1082.39 49.1066ZM1099.63 52.3152C1101.05 52.6052 1102.49 52.9026 1103.93 53.2068L1104.34 51.25C1102.89 50.9448 1101.46 50.6465 1100.03 50.3555L1099.63 52.3152ZM1103.93 53.2068C1105.24 53.4842 1106.55 53.7842 1107.84 54.1062L1108.32 52.1651C1107 51.8375 1105.68 51.5323 1104.34 51.25L1103.93 53.2068ZM1115.56 56.3083C1118.11 57.1346 1120.63 58.0461 1123.1 59.038L1123.85 57.1816C1121.33 56.1729 1118.77 55.2458 1116.17 54.4053L1115.56 56.3083ZM1130.45 62.2776C1132.87 63.4441 1135.24 64.6884 1137.56 66.0052L1138.55 64.266C1136.19 62.9272 1133.78 61.6621 1131.32 60.476L1130.45 62.2776ZM1144.4 70.2001C1146.65 71.6809 1148.83 73.2312 1150.95 74.8456L1152.16 73.2543C1150.01 71.6128 1147.79 70.0366 1145.51 68.5311L1144.4 70.2001ZM1157.17 79.9236C1159.2 81.694 1161.15 83.5252 1163.03 85.4113L1164.44 84.0002C1162.53 82.0813 1160.55 80.2187 1158.49 78.4182L1157.17 79.9236ZM1168.48 91.2901C1170.24 93.3278 1171.92 95.4168 1173.51 97.5511L1175.11 96.3577C1173.5 94.1838 1171.79 92.0567 1170 89.9826L1168.48 91.2901ZM1178.04 104.162C1179.48 106.436 1180.82 108.751 1182.05 111.1L1183.82 110.171C1182.56 107.774 1181.2 105.413 1179.74 103.094L1178.04 104.162ZM1185.47 118.348C1186.51 120.824 1187.43 123.328 1188.24 125.854L1190.14 125.248C1189.32 122.664 1188.37 120.103 1187.31 117.573L1185.47 118.348ZM1190.29 133.584C1190.85 136.2 1191.28 138.832 1191.57 141.471L1193.56 141.253C1193.26 138.545 1192.82 135.846 1192.25 133.164L1190.29 133.584ZM1192.01 149.442C1192.02 152.099 1191.87 154.757 1191.58 157.407L1193.56 157.63C1193.87 154.903 1194.02 152.171 1194.01 149.439L1192.01 149.442ZM1190.23 165.275C1189.64 167.839 1188.9 170.39 1188 172.921L1189.88 173.591C1190.81 170.988 1191.57 168.363 1192.18 165.725L1190.23 165.275ZM1184.9 180.276C1183.75 182.627 1182.45 184.954 1181 187.251L1182.7 188.318C1184.18 185.961 1185.51 183.571 1186.7 181.155L1184.9 180.276ZM1176.41 193.773C1175.6 194.819 1174.74 195.857 1173.86 196.888L1175.37 198.192C1176.28 197.138 1177.15 196.075 1177.99 195.004L1176.41 193.773ZM1173.86 196.888C1173 197.884 1172.13 198.862 1171.25 199.821L1172.72 201.175C1173.62 200.2 1174.5 199.205 1175.37 198.192L1173.86 196.888ZM1165.73 205.395C1163.81 207.196 1161.83 208.902 1159.79 210.499L1161.03 212.072C1163.11 210.437 1165.13 208.693 1167.1 206.855L1165.73 205.395ZM1153.42 215.023C1151.21 216.428 1148.94 217.705 1146.62 218.841L1147.49 220.639C1149.89 219.468 1152.22 218.154 1154.49 216.711L1153.42 215.023ZM1139.42 221.822C1136.98 222.658 1134.47 223.34 1131.91 223.855L1132.3 225.816C1134.95 225.283 1137.54 224.578 1140.07 223.714L1139.42 221.822Z" fill="#4FF3FD" fill-opacity="0.8"/>
<g filter="url(#filter2_d_209_2797)">
<circle cx="12" cy="12" r="12" transform="matrix(-1 0 0 1 735 208)" fill="white"/>
</g>
<circle cx="7.2" cy="7.2" r="7.2" transform="matrix(-1 0 0 1 730.2 212.8)" fill="#4FF3FD"/>
<path d="M491 220L496 217.113V222.887L491 220ZM711 220.5H707.071V219.5H711V220.5ZM699.214 220.5H691.357V219.5H699.214V220.5ZM683.5 220.5H675.643V219.5H683.5V220.5ZM667.786 220.5H659.929V219.5H667.786V220.5ZM652.071 220.5H644.214V219.5H652.071V220.5ZM636.357 220.5H628.5V219.5H636.357V220.5ZM620.643 220.5H612.786V219.5H620.643V220.5ZM604.929 220.5H597.071V219.5H604.929V220.5ZM589.214 220.5H581.357V219.5H589.214V220.5ZM573.5 220.5H565.643V219.5H573.5V220.5ZM557.786 220.5H549.929V219.5H557.786V220.5ZM542.071 220.5H534.214V219.5H542.071V220.5ZM526.357 220.5H518.5V219.5H526.357V220.5ZM510.643 220.5H502.786V219.5H510.643V220.5ZM491 220L501 214.226V225.774L491 220ZM711 221H707.071V219H711V221ZM699.214 221H691.357V219H699.214V221ZM683.5 221H675.643V219H683.5V221ZM667.786 221H659.929V219H667.786V221ZM652.071 221H644.214V219H652.071V221ZM636.357 221H628.5V219H636.357V221ZM620.643 221H612.786V219H620.643V221ZM604.929 221H597.071V219H604.929V221ZM589.214 221H581.357V219H589.214V221ZM573.5 221H565.643V219H573.5V221ZM557.786 221H549.929V219H557.786V221ZM542.071 221H534.214V219H542.071V221ZM526.357 221H518.5V219H526.357V221ZM510.643 221H502.786V219H510.643V221Z" fill="#4FF3FD" fill-opacity="0.8"/>
<path d="M0.668203 79.5L23.8993 0.5H367.332L344.101 79.5H0.668203Z" fill="black" stroke="#4FF3FD"/>
<path d="M78.9422 29.56H82.9022V31H77.2622V27.052L78.6542 26.248H81.2222V24.04H78.9422V25.12H77.2622V23.404L78.6542 22.6H81.5102L82.9022 23.404V26.884L81.5102 27.688H78.9422V29.56ZM90.998 30.256L89.606 31.06H86.33L84.938 30.256V23.344L86.33 22.54H89.606L90.998 23.344V30.256ZM86.618 23.98V29.62H89.318V23.98H86.618ZM94.7156 29.56H98.6756V31H93.0356V27.052L94.4276 26.248H96.9956V24.04H94.7156V25.12H93.0356V23.404L94.4276 22.6H97.2836L98.6756 23.404V26.884L97.2836 27.688H94.7156V29.56ZM105.751 29.14V31H104.095V29.14H100.111V27.94L104.275 22.6H105.751V27.784H106.783V29.14H105.751ZM101.971 27.784H104.095V25.072H104.071L101.971 27.76V27.784ZM108.1 28.624V27.1H111.916V28.624H108.1ZM119.779 30.256L118.387 31.06H115.111L113.719 30.256V23.344L115.111 22.54H118.387L119.779 23.344V30.256ZM115.399 23.98V29.62H118.099V23.98H115.399ZM121.817 25.408V23.836L123.977 22.6H125.417V29.56H127.337V31H121.817V29.56H123.737V24.304L121.817 25.408Z" fill="#DADADA"/>
<path d="M80.0285 53.7V60H78.0285V46H86.2085V47.8H80.0285V51.9H85.0085V53.7H80.0285ZM89.9545 55.9V58.36H93.9745V55.9H89.9545ZM90.3345 60.1L88.0145 58.76V55.5L90.3345 54.16H93.9745V51.74H89.0145V50H93.5945L95.9145 51.34V60.1H95.3945L93.9745 59.28L92.5545 60.1H90.3345ZM101.058 50V60H99.1176V50H101.058ZM99.0176 47.54V45.4H101.158V47.54H99.0176ZM109.834 51.74H106.194V60H104.254V50H105.714L106.194 50.82L107.614 50H109.834V51.74ZM117.423 60V46H119.423V58.2H124.603V60H117.423ZM128.333 55.9V58.36H132.353V55.9H128.333ZM128.713 60.1L126.393 58.76V55.5L128.713 54.16H132.353V51.74H127.393V50H131.973L134.293 51.34V60.1H133.773L132.353 59.28L130.933 60.1H128.713ZM137.496 58.76V50H139.436V58.36H144.056V50H145.996V60.1H144.536L144.056 59.28L142.636 60.1H139.816L137.496 58.76ZM157.696 51.24V60H155.756V51.64H151.136V60H149.196V49.9H150.656L151.136 50.72L152.556 49.9H155.376L157.696 51.24ZM162.835 51.74V58.26H168.395V60H163.215L160.895 58.66V51.34L163.215 50H168.395V51.74H162.835ZM173.128 60H171.188V45.4H173.128V50.72L174.548 49.9H177.568L179.888 51.24V60H177.948V51.64H173.128V60ZM196.778 58.76L194.458 60.1H190.598L188.278 58.76V51.24L190.598 49.9H194.458L196.778 51.24V58.76ZM190.218 51.64V58.36H194.838V51.64H190.218ZM208.477 51.24V60H206.537V51.64H201.917V60H199.977V49.9H201.437L201.917 50.72L203.337 49.9H206.157L208.477 51.24ZM229.271 60V48.6H229.231L225.111 60H223.111L219.011 48.6H218.971V60H217.071V46H219.891L224.091 57.68H224.131L228.351 46H231.171V60H229.271ZM240.847 46L245.847 60H243.887L242.707 56.68H236.507L235.327 60H233.367L238.367 46H240.847ZM239.587 47.98L237.147 54.88H242.067L239.627 47.98H239.587ZM248.048 60V46H255.028L257.348 47.34V53.28L255.028 54.62H250.048V60H248.048ZM250.048 47.8V52.82H255.348V47.8H250.048ZM271.048 58.76L268.728 60.1H262.868L260.548 58.76V47.24L262.868 45.9H268.728L271.048 47.24V58.76ZM262.548 47.7V58.3H269.048V47.7H262.548ZM281.585 51.74V58.26H287.145V60H281.965L279.645 58.66V51.34L281.965 50H287.145V51.74H281.585ZM291.878 60H289.938V45.4H291.878V50.72L293.298 49.9H296.318L298.638 51.24V60H296.698V51.64H291.878V60ZM303.372 55.9V58.36H307.392V55.9H303.372ZM303.752 60.1L301.432 58.76V55.5L303.752 54.16H307.392V51.74H302.432V50H307.012L309.332 51.34V60.1H308.812L307.392 59.28L305.972 60.1H303.752ZM314.476 50V60H312.536V50H314.476ZM312.436 47.54V45.4H314.576V47.54H312.436ZM326.172 51.24V60H324.232V51.64H319.612V60H317.672V49.9H319.132L319.612 50.72L321.032 49.9H323.852L326.172 51.24Z" fill="white"/>
<circle cx="48" cy="30" r="11.5" fill="black" stroke="#4FF3FD"/>
<path d="M44.76 27.944V25.848L47.64 24.2H49.56V33.48H52.12V35.4H44.76V33.48H47.32V26.472L44.76 27.944Z" fill="#4FF3FD"/>
<path d="M107.668 259.5L130.899 180.5H474.332L451.101 259.5H107.668Z" fill="black" stroke="#4FF3FD"/>
<path d="M186.108 209.56H190.068V211H184.428V207.052L185.82 206.248H188.388V204.04H186.108V205.12H184.428V203.404L185.82 202.6H188.676L190.068 203.404V206.884L188.676 207.688H186.108V209.56ZM198.164 210.256L196.772 211.06H193.496L192.104 210.256V203.344L193.496 202.54H196.772L198.164 203.344V210.256ZM193.784 203.98V209.62H196.484V203.98H193.784ZM201.882 209.56H205.842V211H200.202V207.052L201.594 206.248H204.162V204.04H201.882V205.12H200.202V203.404L201.594 202.6H204.45L205.842 203.404V206.884L204.45 207.688H201.882V209.56ZM212.917 209.14V211H211.261V209.14H207.277V207.94L211.441 202.6H212.917V207.784H213.949V209.14H212.917ZM209.137 207.784H211.261V205.072H211.237L209.137 207.76V207.784ZM215.266 208.624V207.1H219.082V208.624H215.266ZM226.945 210.256L225.553 211.06H222.277L220.885 210.256V203.344L222.277 202.54H225.553L226.945 203.344V210.256ZM222.565 203.98V209.62H225.265V203.98H222.565ZM234.023 209.14V211H232.367V209.14H228.383V207.94L232.547 202.6H234.023V207.784H235.055V209.14H234.023ZM230.243 207.784H232.367V205.072H232.343L230.243 207.76V207.784Z" fill="#DADADA"/>
<path d="M184.976 236V222H186.976V234.2H192.156V236H184.976ZM195.886 231.9V234.36H199.906V231.9H195.886ZM196.266 236.1L193.946 234.76V231.5L196.266 230.16H199.906V227.74H194.946V226H199.526L201.846 227.34V236.1H201.326L199.906 235.28L198.486 236.1H196.266ZM205.049 234.76V226H206.989V234.36H211.609V226H213.549V236.1H212.089L211.609 235.28L210.189 236.1H207.369L205.049 234.76ZM225.248 227.24V236H223.308V227.64H218.688V236H216.748V225.9H218.208L218.688 226.72L220.108 225.9H222.928L225.248 227.24ZM230.388 227.74V234.26H235.948V236H230.768L228.448 234.66V227.34L230.768 226H235.948V227.74H230.388ZM240.681 236H238.741V221.4H240.681V226.72L242.101 225.9H245.121L247.441 227.24V236H245.501V227.64H240.681V236ZM266.53 234.66L264.21 236H256.03V222H264.21L266.53 223.34V234.66ZM258.03 223.8V234.2H264.53V223.8H258.03ZM271.472 231.9V234.36H275.492V231.9H271.472ZM271.852 236.1L269.532 234.76V231.5L271.852 230.16H275.492V227.74H270.532V226H275.112L277.432 227.34V236.1H276.912L275.492 235.28L274.072 236.1H271.852ZM287.015 236.1H283.995L282.575 235.28V240H280.635V225.9H282.095L282.575 226.72L283.995 225.9H287.015L289.335 227.24V234.76L287.015 236.1ZM282.575 227.64V234.36H287.395V227.64H282.575ZM298.91 236.1H295.89L294.47 235.28V240H292.53V225.9H293.99L294.47 226.72L295.89 225.9H298.91L301.23 227.24V234.76L298.91 236.1ZM294.47 227.64V234.36H299.29V227.64H294.47Z" fill="white"/>
<circle cx="155" cy="210" r="11.5" fill="black" stroke="#4FF3FD"/>
<path d="M158.48 212.92V215.4H156.272V212.92H150.96V211.32L156.512 204.2H158.48V211.112H159.856V212.92H158.48ZM153.44 211.112H156.272V207.496H156.24L153.44 211.08V211.112Z" fill="#4FF3FD"/>
<path d="M644.668 79.5L667.899 0.5H1011.33L988.101 79.5H644.668Z" fill="black" stroke="#4FF3FD"/>
<path d="M723.085 29.56H727.045V31H721.405V27.052L722.797 26.248H725.365V24.04H723.085V25.12H721.405V23.404L722.797 22.6H725.653L727.045 23.404V26.884L725.653 27.688H723.085V29.56ZM735.141 30.256L733.749 31.06H730.473L729.081 30.256V23.344L730.473 22.54H733.749L735.141 23.344V30.256ZM730.761 23.98V29.62H733.461V23.98H730.761ZM738.858 29.56H742.818V31H737.178V27.052L738.57 26.248H741.138V24.04H738.858V25.12H737.178V23.404L738.57 22.6H741.426L742.818 23.404V26.884L741.426 27.688H738.858V29.56ZM749.894 29.14V31H748.238V29.14H744.254V27.94L748.418 22.6H749.894V27.784H750.926V29.14H749.894ZM746.114 27.784H748.238V25.072H748.214L746.114 27.76V27.784ZM752.243 28.624V27.1H756.059V28.624H752.243ZM763.922 30.256L762.53 31.06H759.254L757.862 30.256V23.344L759.254 22.54H762.53L763.922 23.344V30.256ZM759.542 23.98V29.62H762.242V23.98H759.542ZM767.639 29.56H771.599V31H765.959V27.052L767.351 26.248H769.919V24.04H767.639V25.12H765.959V23.404L767.351 22.6H770.207L771.599 23.404V26.884L770.207 27.688H767.639V29.56Z" fill="#DADADA"/>
<path d="M734.064 60V48.6H734.024L729.904 60H727.904L723.804 48.6H723.764V60H721.864V46H724.684L728.884 57.68H728.924L733.144 46H735.964V60H734.064ZM739.36 58.76V50H741.3V58.36H745.92V50H747.86V60.1H746.4L745.92 59.28L744.5 60.1H741.68L739.36 58.76ZM753.379 60L751.059 58.66V45.4H752.999V58.26H755.399V60H753.379ZM756.607 51.74V50H758.447V48.32L760.387 47.2V50H762.787V51.74H760.387V58.26H762.787V60H760.767L758.447 58.66V51.74H756.607ZM767.53 50V60H765.59V50H767.53ZM765.49 47.54V45.4H767.63V47.54H765.49ZM777.107 60.1H774.087L772.667 59.28V64H770.727V49.9H772.187L772.667 50.72L774.087 49.9H777.107L779.427 51.24V58.76L777.107 60.1ZM772.667 51.64V58.36H777.487V51.64H772.667ZM784.941 60L782.621 58.66V45.4H784.561V58.26H786.961V60H784.941ZM796.869 58.26V60H791.289L788.969 58.66V51.24L791.289 49.9H794.549L796.869 51.24V55.68H790.909V58.26H796.869ZM790.909 51.64V53.94H794.929V51.64H790.909ZM807.458 49.42V60H805.458V46H807.278L814.518 56.58H814.558V46H816.558V60H814.738L807.498 49.42H807.458ZM822.165 53.7V60H820.165V46H828.345V47.8H822.165V51.9H827.145V53.7H822.165ZM835.531 47.8V60H833.531V47.8H829.551V46H839.511V47.8H835.531ZM849.219 60L846.899 58.66V45.4H848.839V58.26H851.239V60H849.219ZM854.786 55.9V58.36H858.806V55.9H854.786ZM855.166 60.1L852.846 58.76V55.5L855.166 54.16H858.806V51.74H853.846V50H858.426L860.746 51.34V60.1H860.226L858.806 59.28L857.386 60.1H855.166ZM863.95 58.76V50H865.89V58.36H870.51V50H872.45V60.1H870.99L870.51 59.28L869.09 60.1H866.27L863.95 58.76ZM884.149 51.24V60H882.209V51.64H877.589V60H875.649V49.9H877.109L877.589 50.72L879.009 49.9H881.829L884.149 51.24ZM889.288 51.74V58.26H894.848V60H889.668L887.348 58.66V51.34L889.668 50H894.848V51.74H889.288ZM899.581 60H897.641V45.4H899.581V50.72L901.001 49.9H904.021L906.341 51.24V60H904.401V51.64H899.581V60Z" fill="white"/>
<circle cx="692" cy="30" r="11.5" fill="black" stroke="#4FF3FD"/>
<path d="M691 33.48H696.28V35.4H688.76V30.136L690.616 29.064H694.04V26.12H691V27.56H688.76V25.272L690.616 24.2H694.424L696.28 25.272V29.912L694.424 30.984H691V33.48Z" fill="#4FF3FD"/>
<path d="M751.668 259.5L774.899 180.5H1118.33L1095.1 259.5H751.668Z" fill="black" stroke="#4FF3FD"/>
<path d="M829.956 209.56H833.916V211H828.276V207.052L829.668 206.248H832.236V204.04H829.956V205.12H828.276V203.404L829.668 202.6H832.524L833.916 203.404V206.884L832.524 207.688H829.956V209.56ZM842.012 210.256L840.62 211.06H837.344L835.952 210.256V203.344L837.344 202.54H840.62L842.012 203.344V210.256ZM837.632 203.98V209.62H840.332V203.98H837.632ZM845.729 209.56H849.689V211H844.049V207.052L845.441 206.248H848.009V204.04H845.729V205.12H844.049V203.404L845.441 202.6H848.297L849.689 203.404V206.884L848.297 207.688H845.729V209.56ZM856.765 209.14V211H855.109V209.14H851.125V207.94L855.289 202.6H856.765V207.784H857.797V209.14H856.765ZM852.985 207.784H855.109V205.072H855.085L852.985 207.76V207.784ZM859.114 208.624V207.1H862.93V208.624H859.114ZM870.793 210.256L869.401 211.06H866.125L864.733 210.256V203.344L866.125 202.54H869.401L870.793 203.344V210.256ZM866.413 203.98V209.62H869.113V203.98H866.413ZM877.331 211.06H874.223L872.831 210.256V208.54H874.511V209.62H877.043V207.376H874.943V205.936H877.043V203.98H874.511V205.06H872.831V203.344L874.223 202.54H877.331L878.723 203.344V206.044L877.679 206.644V206.668L878.723 207.268V210.256L877.331 211.06Z" fill="#DADADA"/>
<path d="M829.025 240V226H831.025V238.2H836.205V240H829.025ZM839.935 235.9V238.36H843.955V235.9H839.935ZM840.315 240.1L837.995 238.76V235.5L840.315 234.16H843.955V231.74H838.995V230H843.575L845.895 231.34V240.1H845.375L843.955 239.28L842.535 240.1H840.315ZM849.098 238.76V230H851.038V238.36H855.658V230H857.598V240.1H856.138L855.658 239.28L854.238 240.1H851.418L849.098 238.76ZM869.297 231.24V240H867.357V231.64H862.737V240H860.797V229.9H862.257L862.737 230.72L864.157 229.9H866.977L869.297 231.24ZM874.436 231.74V238.26H879.996V240H874.816L872.496 238.66V231.34L874.816 230H879.996V231.74H874.436ZM884.729 240H882.789V225.4H884.729V230.72L886.149 229.9H889.169L891.489 231.24V240H889.549V231.64H884.729V240ZM901.819 240H899.879V225.4H901.819V230.72L903.239 229.9H906.259L908.579 231.24V240H906.639V231.64H901.819V240ZM920.274 238.76L917.954 240.1H914.094L911.774 238.76V231.24L914.094 229.9H917.954L920.274 231.24V238.76ZM913.714 231.64V238.36H918.334V231.64H913.714ZM925.793 229.9H928.813L930.233 230.72V225.4H932.173V240.1H930.713L930.233 239.28L928.813 240.1H925.793L923.473 238.76V231.24L925.793 229.9ZM930.233 238.36V231.64H925.413V238.36H930.233ZM937.688 240L935.368 238.66V225.4H937.308V238.26H939.708V240H937.688ZM949.615 238.26V240H944.035L941.715 238.66V231.24L944.035 229.9H947.295L949.615 231.24V235.68H943.655V238.26H949.615ZM943.655 231.64V233.94H947.675V231.64H943.655ZM958.389 231.74H954.749V240H952.809V230H954.269L954.749 230.82L956.169 230H958.389V231.74ZM969.138 229.9H972.158L974.478 231.24V238.76L972.158 240.1H969.138L967.718 239.28L966.298 240.1H965.778V225.4H967.718V230.72L969.138 229.9ZM967.718 231.64V238.36H972.538V231.64H967.718ZM985.572 238.26V240H979.992L977.672 238.66V231.24L979.992 229.9H983.252L985.572 231.24V235.68H979.612V238.26H985.572ZM979.612 231.64V233.94H983.632V231.64H979.612ZM997.266 231.24V240H995.326V231.64H990.706V240H988.766V229.9H990.226L990.706 230.72L992.126 229.9H994.946L997.266 231.24ZM1008.37 238.26V240H1002.79L1000.47 238.66V231.24L1002.79 229.9H1006.05L1008.37 231.24V235.68H1002.41V238.26H1008.37ZM1002.41 231.64V233.94H1006.43V231.64H1002.41ZM1010.76 231.74V230H1012.6V226.74L1014.92 225.4H1016.94V227.14H1014.54V230H1016.94V231.74H1014.54V240H1012.6V231.74H1010.76ZM1021.27 230V240H1019.33V230H1021.27ZM1019.23 227.54V225.4H1021.37V227.54H1019.23ZM1023.67 231.74V230H1025.51V228.32L1027.45 227.2V230H1029.85V231.74H1027.45V238.26H1029.85V240H1027.83L1025.51 238.66V231.74H1023.67ZM1040.17 235.4V238.66L1037.85 240H1032.65V238.26H1038.23V235.8H1034.97L1032.65 234.46V231.34L1034.97 230H1039.97V231.74H1034.59V234.06H1037.85L1040.17 235.4Z" fill="white"/>
<circle cx="799" cy="210" r="11.5" fill="black" stroke="#4FF3FD"/>
<path d="M801.76 215.48H797.616L795.76 214.408V212.12H798V213.56H801.376V210.568H798.576V208.648H801.376V206.04H798V207.48H795.76V205.192L797.616 204.12H801.76L803.616 205.192V208.792L802.224 209.592V209.624L803.616 210.424V214.408L801.76 215.48Z" fill="#4FF3FD"/>
<defs>
<filter id="filter0_d_209_2797" x="364" y="8" width="64" height="64" filterUnits="userSpaceOnUse" color-interpolation-filters="sRGB">
<feFlood flood-opacity="0" result="BackgroundImageFix"/>
<feColorMatrix in="SourceAlpha" type="matrix" values="0 0 0 0 0 0 0 0 0 0 0 0 0 0 0 0 0 0 127 0" result="hardAlpha"/>
<feOffset/>
<feGaussianBlur stdDeviation="10"/>
<feComposite in2="hardAlpha" operator="out"/>
<feColorMatrix type="matrix" values="0 0 0 0 1 0 0 0 0 1 0 0 0 0 1 0 0 0 0.5 0"/>
<feBlend mode="normal" in2="BackgroundImageFix" result="effect1_dropShadow_209_2797"/>
<feBlend mode="normal" in="SourceGraphic" in2="effect1_dropShadow_209_2797" result="shape"/>
</filter>
<filter id="filter1_d_209_2797" x="1008" y="13" width="64" height="64" filterUnits="userSpaceOnUse" color-interpolation-filters="sRGB">
<feFlood flood-opacity="0" result="BackgroundImageFix"/>
<feColorMatrix in="SourceAlpha" type="matrix" values="0 0 0 0 0 0 0 0 0 0 0 0 0 0 0 0 0 0 127 0" result="hardAlpha"/>
<feOffset/>
<feGaussianBlur stdDeviation="10"/>
<feComposite in2="hardAlpha" operator="out"/>
<feColorMatrix type="matrix" values="0 0 0 0 1 0 0 0 0 1 0 0 0 0 1 0 0 0 0.5 0"/>
<feBlend mode="normal" in2="BackgroundImageFix" result="effect1_dropShadow_209_2797"/>
<feBlend mode="normal" in="SourceGraphic" in2="effect1_dropShadow_209_2797" result="shape"/>
</filter>
<filter id="filter2_d_209_2797" x="691" y="188" width="64" height="64" filterUnits="userSpaceOnUse" color-interpolation-filters="sRGB">
<feFlood flood-opacity="0" result="BackgroundImageFix"/>
<feColorMatrix in="SourceAlpha" type="matrix" values="0 0 0 0 0 0 0 0 0 0 0 0 0 0 0 0 0 0 127 0" result="hardAlpha"/>
<feOffset/>
<feGaussianBlur stdDeviation="10"/>
<feComposite in2="hardAlpha" operator="out"/>
<feColorMatrix type="matrix" values="0 0 0 0 1 0 0 0 0 1 0 0 0 0 1 0 0 0 0.5 0"/>
<feBlend mode="normal" in2="BackgroundImageFix" result="effect1_dropShadow_209_2797"/>
<feBlend mode="normal" in="SourceGraphic" in2="effect1_dropShadow_209_2797" result="shape"/>
</filter>
</defs>
</svg>
