<svg width="1440" height="936" viewBox="0 0 1440 936" fill="none" xmlns="http://www.w3.org/2000/svg">
<g opacity="0.5" clip-path="url(#clip0_802_3327)">
<path opacity="0.5" d="M-93 608.857C-28.3293 580.198 49.5222 599.192 105.789 638.588C162.056 677.982 201.356 734.817 238.985 791.677C269.49 837.817 306.016 889.136 355.883 912.129C365.892 916.68 376.489 920.105 387.577 922.122C450.362 933.275 506.357 893.13 540.134 844.641C574.264 795.666 592.395 734.004 622.111 676.585C625.444 670.21 628.912 663.853 632.632 657.669C662.626 607.554 708.964 562.373 767.569 556.237C782.813 554.688 797.793 555.792 812.648 558.626C855.155 566.963 895.516 590.323 937.434 604.358C981.992 619.315 1027.49 623.514 1073.21 618.06C1144.26 609.565 1213.92 577.328 1276.54 539.357C1288.01 532.418 1299.39 525.196 1310.37 517.915C1359.62 485.533 1408.71 450.572 1460.61 421.803C1524.97 386.103 1594.79 361.019 1664 361" stroke="url(#paint0_linear_802_3327)" stroke-miterlimit="10"/>
<path opacity="0.5" d="M-97 601.161C-33.196 571.986 43.3944 588.497 100.008 624.824C156.621 661.152 197.41 714.673 236.502 769.292C268.156 813.419 305.073 863.15 354.315 886.71C364.171 891.369 374.46 895.016 385.376 897.275C446.798 910.236 501.218 875.126 536.74 830.815C572.811 785.643 594.599 725.622 625.918 668.735C629.387 662.383 633.108 656.202 636.987 649.909C668.041 600.243 714.573 554.844 773.165 548.036C788.455 546.224 803.48 547.064 818.498 549.785C861.529 557.518 902.063 580.753 944.054 595.327C988.549 610.803 1034.14 616.354 1080.06 611.467C1151.69 603.998 1221.65 570.878 1284.13 532.099C1295.63 525.033 1306.9 517.663 1317.91 510.254C1367.15 477.214 1416.09 441.575 1468.55 412.902C1533.45 377.433 1605.36 354.409 1673 358.461" stroke="url(#paint1_linear_802_3327)" stroke-miterlimit="10"/>
<path opacity="0.5" d="M-101 593.341C-38.2253 563.633 37.2282 577.549 94.1449 610.939C151.061 644.33 193.459 694.554 233.747 746.756C266.516 788.999 303.965 837.027 352.29 861.108C361.991 865.876 372.103 869.763 382.708 872.244C442.623 886.858 495.717 856.82 532.815 816.799C570.949 775.452 596.111 717.039 629.139 660.843C632.724 654.646 636.602 648.357 640.595 642.221C672.697 593.011 719.385 547.532 778.115 539.807C793.446 537.735 808.511 538.311 823.684 540.918C867.087 548.029 907.913 571.155 950.074 586.416C994.624 602.426 1040.15 609.306 1086.4 605.009C1158.56 598.563 1228.96 564.454 1291.15 524.856C1302.55 517.511 1313.85 510.016 1324.87 502.481C1373.95 468.635 1422.72 432.325 1475.71 403.883C1541.13 368.649 1614.97 347.535 1681 355.782" stroke="url(#paint2_linear_802_3327)" stroke-miterlimit="10"/>
<path opacity="0.5" d="M-104 585.402C-42.1521 555.261 32.1684 566.475 89.3763 596.986C146.604 627.366 190.443 674.493 232.191 724.409C265.932 764.822 303.924 811.099 351.554 836.048C360.96 840.913 370.914 844.916 381.3 847.906C439.835 864.22 491.591 839.201 530.119 803.382C570.444 765.807 598.976 708.899 633.587 653.143C637.443 646.979 641.436 640.836 645.564 634.712C678.707 585.87 725.676 540.25 784.241 531.688C799.587 529.483 814.825 529.817 830.055 532.032C873.8 538.663 914.791 561.57 957.135 577.413C1001.73 593.986 1047.18 602.21 1093.73 598.626C1166.55 593.212 1237.21 558.166 1299.12 517.544C1310.54 510.061 1321.72 502.406 1332.77 494.6C1381.81 460.04 1430.39 422.994 1483.91 394.6C1549.87 359.408 1625.72 340.449 1690 352.758" stroke="url(#paint3_linear_802_3327)" stroke-miterlimit="10"/>
<path opacity="0.5" d="M-108 577.67C-47.1785 546.961 25.9874 555.724 83.5404 583.071C141.074 610.55 186.521 654.434 229.466 701.992C264.344 740.436 302.848 785.194 349.563 810.695C358.813 815.674 368.455 819.902 378.666 823.138C435.812 841.275 486.401 821.188 526.253 789.447C568.777 755.672 600.549 700.284 636.888 645.023C640.881 638.876 645.009 632.749 649.254 626.775C683.445 578.332 730.59 532.447 789.276 523.091C804.663 520.621 819.94 520.691 835.326 522.795C879.58 528.831 920.728 551.638 963.264 568.054C1007.92 585.181 1053.32 594.614 1100.05 591.725C1173.4 587.33 1244.33 551.366 1306.25 509.783C1317.56 502.145 1328.75 494.354 1339.7 486.393C1388.59 450.988 1437.13 413.246 1491.06 384.899C1557.53 349.9 1635.33 332.829 1698 349.349" stroke="url(#paint4_linear_802_3327)" stroke-miterlimit="10"/>
<path opacity="0.5" d="M-111 569.877C-51.0886 538.699 20.7848 544.843 78.6254 569.224C136.466 593.605 183.353 634.255 227.616 679.357C263.599 715.871 302.489 758.85 348.546 784.877C357.638 789.957 367.101 794.421 376.997 797.872C432.739 817.786 482.125 802.803 523.288 775.213C568.134 745.337 603.135 691.607 641.035 637.09C645.279 631.127 649.542 625.032 653.92 619.088C689.15 571.165 736.437 525.262 795.226 515.137C810.628 512.541 825.941 512.348 841.498 514.205C886.111 519.611 927.539 542.28 970.255 559.227C1014.95 576.865 1060.28 587.612 1107.29 585.444C1181.17 582.077 1252.5 545.306 1314.11 502.96C1325.44 495.206 1336.53 487.149 1347.48 479.072C1396.32 443.063 1444.68 404.701 1499.14 376.491C1566.26 341.794 1645.93 326.781 1707 347.333" stroke="url(#paint5_linear_802_3327)" stroke-miterlimit="10"/>
<path opacity="0.5" d="M-115 562.373C-55.9898 530.756 14.7803 534.19 72.9349 555.688C131.09 577.185 179.592 614.621 225.194 657.418C262.185 691.971 301.729 733.482 346.994 760.232C355.91 765.561 365.084 770.122 374.649 773.932C429.012 795.685 477.218 785.755 519.712 762.223C566.899 736.146 605.03 683.746 644.508 629.795C648.887 623.843 653.268 617.893 657.783 611.961C694.045 564.533 741.537 518.2 800.3 507.385C815.744 504.522 831.1 504.066 846.816 505.813C891.809 510.609 933.515 533.344 976.314 550.726C1021.07 568.931 1066.35 581.026 1113.56 579.422C1187.99 577.071 1259.6 539.353 1321.09 495.997C1332.3 488.081 1343.41 479.883 1354.39 471.665C1403.09 434.783 1451.42 395.698 1506.28 367.645C1573.93 333.116 1655.56 319.979 1715 344.891" stroke="url(#paint6_linear_802_3327)" stroke-miterlimit="10"/>
<path opacity="0.5" d="M-119 554.563C-60.998 522.385 8.64083 523.366 67.14 541.823C125.639 560.28 175.611 594.574 222.562 635.019C260.681 667.725 300.655 707.424 345.135 734.87C353.899 740.313 362.9 745.118 372.156 749.153C425.15 772.726 472.455 767.905 516.014 748.419C565.691 726.193 606.938 675.307 648.023 621.843C652.54 615.911 657.193 609.998 661.846 604.086C699.033 557.048 746.969 510.632 805.756 498.873C821.246 495.747 836.784 495.047 852.545 496.533C897.905 500.841 939.937 523.359 982.923 541.442C1027.62 560.178 1072.97 573.631 1120.54 572.612C1195.67 571.298 1267.58 532.671 1328.82 488.325C1340.06 480.276 1351.08 471.794 1362.08 463.442C1410.78 425.742 1458.93 386.082 1514.35 358.1C1582.57 323.643 1666.27 312.682 1724 341.65" stroke="url(#paint7_linear_802_3327)" stroke-miterlimit="10"/>
<path opacity="0.5" d="M-122 546.468C-64.8931 513.735 3.46948 512.109 62.2892 527.53C121.109 542.951 172.666 574.137 220.946 612.246C260.179 643.118 300.683 681.172 344.36 709.327C352.967 714.885 361.675 719.785 370.715 724.33C422.317 749.735 468.567 750.006 513.33 734.45C565.435 716.331 609.687 666.657 652.476 613.808C657.266 607.912 661.898 602.127 666.823 596.25C705.056 549.602 753.144 503.043 811.912 490.468C827.285 487.187 842.997 486.244 858.934 487.486C904.799 491.2 946.985 513.62 990.023 532.262C1034.77 551.557 1080.06 566.355 1127.93 566.053C1203.6 565.759 1275.8 526.073 1337 481.019C1348.27 472.701 1359.16 464.193 1370.06 455.553C1418.58 417.13 1466.72 376.634 1522.53 348.824C1591.26 314.555 1676.87 305.615 1733 338.677" stroke="url(#paint8_linear_802_3327)" stroke-miterlimit="10"/>
<path opacity="0.5" d="M-126 538.552C-69.9211 505.45 -2.65 501.112 56.6316 513.618C115.777 526.104 168.826 553.961 218.456 589.652C258.84 618.492 299.735 654.93 342.647 683.6C350.966 689.241 359.636 694.397 368.367 699.158C418.483 726.187 463.908 731.977 509.78 720.232C564.472 706.275 611.749 657.921 656.147 605.654C661.053 599.918 665.98 594.05 670.886 588.313C710.181 542.158 758.462 495.428 817.372 482.083C832.791 478.545 848.549 477.34 864.647 478.469C910.901 481.559 953.395 503.852 996.64 523.031C1041.46 542.842 1086.7 558.952 1134.78 559.215C1211.01 559.941 1283.65 519.435 1344.61 473.471C1355.77 465.015 1366.69 456.389 1377.61 447.631C1426.14 408.458 1473.97 367.439 1530.47 339.772C1599.76 305.765 1687.32 298.733 1742 335.963" stroke="url(#paint9_linear_802_3327)" stroke-miterlimit="10"/>
<path opacity="0.5" d="M-129 531.042C-73.8486 497.421 -7.75557 490.502 51.6566 500.073C111.089 509.511 165.692 534.23 216.507 567.397C257.845 594.353 299.402 628.995 341.486 658.342C349.644 664.094 357.997 669.47 366.547 674.473C415.243 703.303 459.682 714.459 506.616 706.503C563.819 696.816 613.958 649.574 660.055 597.849C665.094 592.134 670.27 586.44 675.31 580.726C715.626 535.01 764.033 488.187 823.025 474.06C838.454 470.392 854.243 468.925 870.506 469.81C917.102 472.281 959.861 494.474 1003.14 514.19C1047.98 534.538 1093.13 551.974 1141.48 552.954C1218.35 554.718 1291.22 513.328 1351.87 466.405C1363.05 457.821 1373.99 448.935 1384.79 440.03C1433.11 400.178 1480.9 358.367 1537.74 330.902C1607.52 297.121 1697.08 292.134 1750 333.395" stroke="url(#paint10_linear_802_3327)" stroke-miterlimit="10"/>
<path opacity="0.5" d="M-133 523.364C-78.852 489.101 -13.8856 479.708 46.0336 486.141C105.797 492.687 161.897 514.184 214.203 545.093C256.676 570.262 298.667 603.17 339.951 633.417C347.956 639.295 356.137 644.93 364.358 650.3C411.687 681.024 455.169 697.722 503.391 693.296C563.148 687.992 616.358 641.608 664.046 590.381C669.361 584.691 674.539 578.982 679.697 573.404C721.08 527.991 769.82 480.822 828.666 465.96C844.142 462.019 859.977 460.284 876.404 461.06C923.509 463.069 966.463 485.076 1009.95 505.411C1054.87 526.358 1099.98 545.177 1148.54 546.726C1225.98 549.516 1299.16 507.117 1359.7 459.108C1370.77 450.351 1381.73 441.31 1392.45 432.098C1440.64 391.311 1488.38 348.845 1545.81 321.387C1616.29 287.616 1707.67 284.627 1759 330.205" stroke="url(#paint11_linear_802_3327)" stroke-miterlimit="10"/>
<path opacity="0.5" d="M-137 515.573C-83.7292 480.882 -20.0166 468.915 40.224 472.42C100.329 475.905 158.034 494.212 211.551 522.651C255.174 545.76 297.689 577.033 338.205 607.746C346.055 613.718 353.926 619.559 361.974 625.156C407.926 657.598 450.308 679.723 499.792 678.982C561.959 678.068 618.232 632.804 667.663 582.251C673.095 576.73 678.546 571.077 683.862 565.405C726.285 520.682 775.216 473.412 834.218 457.675C849.738 453.483 865.734 451.642 882.226 452.022C929.717 453.408 972.974 475.257 1016.51 496.206C1061.5 517.635 1106.57 537.6 1155.46 539.86C1233.46 543.659 1307.07 500.508 1367.49 451.817C1378.57 442.955 1389.45 433.659 1400.17 424.474C1448.33 383.135 1495.93 339.97 1553.77 312.786C1624.79 279.327 1718.25 278.389 1768 327.894" stroke="url(#paint12_linear_802_3327)" stroke-miterlimit="10"/>
<path opacity="0.5" d="M-140 507.944C-87.8012 472.754 -25.0974 458.064 35.284 458.641C95.6653 459.218 154.953 474.301 209.779 500.439C254.36 521.723 297.545 551.28 337.105 582.731C344.796 588.827 352.351 594.905 360.064 600.869C404.451 635.309 445.836 662.99 496.565 665.796C561.074 669.395 620.526 624.902 671.527 574.741C677.091 569.227 682.676 563.582 688.105 558.049C731.556 513.651 780.621 466.167 839.716 449.606C855.25 445.274 871.298 443.034 887.939 443.303C935.78 444.073 979.29 466.008 1023.02 487.437C1067.9 509.439 1113.03 530.803 1162.07 533.765C1240.57 538.593 1314.42 494.448 1374.68 444.691C1385.66 435.526 1396.53 426.209 1407.29 416.742C1455.28 374.484 1502.81 330.679 1561.02 303.496C1632.53 270.175 1727.89 271.131 1776 324.949" stroke="url(#paint13_linear_802_3327)" stroke-miterlimit="10"/>
<path opacity="0.5" d="M-144 500.054C-92.6981 464.342 -31.2923 447.18 29.5435 444.731C90.2432 442.262 150.977 454.189 207.129 477.958C252.822 497.381 296.4 525.24 335.292 557.393C342.826 563.599 350.205 569.919 357.604 576.106C400.599 612.352 440.847 645.644 492.838 651.995C559.692 660.24 622.226 616.478 674.949 566.85C680.785 561.377 686.486 555.884 692.05 550.373C736.545 506.407 785.78 458.693 844.854 441.327C860.426 436.733 876.513 434.231 893.172 434.367C941.516 434.54 985.177 456.358 1028.95 478.327C1073.9 500.869 1118.95 523.562 1168.31 527.11C1247.5 532.845 1321.62 487.809 1381.58 437.216C1392.59 427.922 1403.34 418.457 1414.14 408.729C1462.08 365.805 1509.47 321.183 1568.19 294.216C1640.22 261.116 1737.62 264.119 1784 321.974" stroke="url(#paint14_linear_802_3327)" stroke-miterlimit="10"/>
<path opacity="0.5" d="M-147 492.23C-96.7237 455.998 -36.4511 436.268 24.7118 430.777C85.7387 425.267 148.063 434.054 205.415 455.423C252.247 472.843 296.337 499.138 334.316 531.801C341.558 538.095 348.781 544.519 355.983 551.076C397.593 589.104 436.71 627.979 489.991 637.738C559.082 650.465 624.979 607.499 679.257 558.679C685.229 553.23 691.045 547.895 696.747 542.407C742.156 498.882 791.821 451.139 850.881 432.981C866.474 428.258 882.602 425.496 899.437 425.389C948.135 425.074 992.112 446.649 1036.08 469.164C1081.08 492.232 1126.07 516.239 1175.75 520.501C1255.48 527.249 1330.02 481.373 1389.71 429.846C1400.6 420.409 1411.39 410.691 1422.06 400.951C1469.85 357.237 1517.04 312.089 1576.33 285.095C1648.91 252.103 1748.21 257.26 1793 319.132" stroke="url(#paint15_linear_802_3327)" stroke-miterlimit="10"/>
<path opacity="0.5" d="M-151 484.219C-12.1096 381.022 203.687 390.876 332.632 506.381C381.204 549.861 422.206 608.37 486.416 624.018C565.505 643.306 642.155 589.125 700.9 534.762C759.644 480.399 823.634 418.063 905.206 416.475C1004.49 414.506 1083.81 504.387 1182.6 513.905C1262.89 521.673 1337.72 474.889 1397.4 422.545C1457.09 370.201 1511.22 308.716 1584.32 276.061C1657.43 243.273 1758.82 250.345 1802 316.428" stroke="url(#paint16_linear_802_3327)" stroke-miterlimit="10"/>
<path opacity="0.5" d="M-148 511.001C-11.3146 404.78 204.23 409.9 336.086 521.955C385.695 564.168 428.004 621.47 492.435 635.69C556.185 649.813 617.517 616.746 668.723 574.398C681.289 563.979 693.101 553.046 704.348 542.166C738.109 509.393 773.263 473.863 812.764 449.058C840.254 431.929 870.015 419.974 902.728 417.87C934.876 415.819 965.271 423.472 995.182 435.227C1055.84 458.724 1114.32 499.266 1180.45 506.871C1250.96 514.977 1316.85 483.92 1372.67 444.128C1380.29 438.777 1387.67 433.256 1394.8 427.563C1440.25 391.917 1482.99 351.298 1533.08 319.959C1549.2 309.923 1566.02 300.796 1584 293.183C1657.58 261.898 1757.69 266.372 1801 325.299" stroke="url(#paint17_linear_802_3327)" stroke-miterlimit="10"/>
<path opacity="0.5" d="M-144 536.862C-9.5325 427.802 205.757 428.043 340.335 536.689C390.975 577.558 434.724 633.569 499.368 646.337C563.196 658.987 624.002 624.779 674.077 581.61C686.256 571.005 697.949 559.923 708.827 548.724C741.596 515.147 775.447 479.036 813.859 453.141C840.495 435.22 869.305 422.19 901.378 418.784C932.772 415.278 962.724 421.25 992.734 431.402C1053.57 451.823 1113.32 490.384 1179.4 499.191C1249.59 508.459 1314.94 481.775 1370.85 446.856C1378.38 442.165 1385.81 437.192 1393.08 432.33C1438.88 400.784 1482.38 364.326 1533.19 335.526C1549.49 326.191 1566.48 317.765 1584.55 310.438C1658.57 280.71 1757.42 282.444 1801 334.125" stroke="url(#paint18_linear_802_3327)" stroke-miterlimit="10"/>
<path opacity="0.5" d="M-141 563.501C-8.73594 451.495 206.46 446.877 343.777 552.218C395.316 591.762 440.509 646.536 505.374 657.863C569.403 669.203 629.554 633.802 678.506 589.771C690.431 578.987 701.757 567.577 712.403 556.068C744.302 521.805 776.892 484.815 813.95 457.765C839.597 439.017 867.711 425.07 898.897 420.186C929.675 415.242 959.187 419.538 989.167 428.076C1050.08 445.29 1111.1 481.905 1177.27 491.941C1247.27 502.401 1312.09 480.199 1368.12 449.987C1375.7 445.84 1383.14 441.673 1390.47 437.355C1436.76 409.9 1480.88 377.55 1532.3 351.111C1548.89 342.62 1566.08 334.623 1584.22 327.838C1658.7 299.641 1756.28 298.767 1800 343.096" stroke="url(#paint19_linear_802_3327)" stroke-miterlimit="10"/>
<path opacity="0.5" d="M-137 590.34C-7.1053 475.594 207.977 466.117 348.195 567.82C400.747 606.156 447.265 659.496 512.344 669.372C576.451 679.241 636.194 642.847 683.766 597.819C695.459 586.734 706.532 575.156 716.789 563.458C747.813 528.538 778.985 490.812 814.954 462.669C839.749 443.128 867.03 428.255 897.46 421.917C927.464 415.651 956.69 418.155 986.635 425.071C1047.73 439.212 1110.02 473.851 1176.01 485.07C1245.69 496.693 1309.95 478.993 1366.24 453.403C1373.86 449.935 1381.36 446.317 1388.72 442.677C1435.35 419.449 1480.38 391.143 1532.4 367.087C1549.16 359.296 1566.53 351.998 1584.75 345.499C1659.69 318.855 1756.01 315.243 1800 352.332" stroke="url(#paint20_linear_802_3327)" stroke-miterlimit="10"/>
<path opacity="0.5" d="M-134 615.934C-6.32703 498.501 208.495 484.168 351.565 582.361C405.146 619.308 452.945 671.405 518.237 679.819C582.418 688.207 641.634 650.721 688.076 604.929C699.515 593.692 710.219 581.81 720.222 569.961C750.39 534.301 780.258 496.045 814.888 466.677C838.807 446.502 865.156 430.444 894.831 422.664C924.079 414.955 952.998 415.798 982.907 421.086C1044.34 432.029 1107.58 464.87 1173.67 477.163C1243 490.061 1306.89 476.637 1363.27 455.94C1370.92 453.155 1378.46 450.219 1385.88 447.132C1432.84 428.023 1478.63 403.904 1531.39 382.279C1548.29 375.33 1565.86 368.61 1584.31 362.422C1659.7 337.367 1754.74 331.156 1799 360.836" stroke="url(#paint21_linear_802_3327)" stroke-miterlimit="10"/>
<path opacity="0.5" d="M-131 642.399C-5.47936 522.073 209.198 502.866 355.2 597.73C409.701 633.335 458.965 684.173 524.638 691.161C589.047 698.235 647.629 659.573 692.966 612.939C704.042 601.377 714.498 589.322 724.274 577.169C753.581 540.838 782.181 501.852 815.625 471.23C838.565 450.237 864.229 433.269 893.164 424.033C921.788 415.021 950.318 413.925 980.188 417.728C1041.85 425.478 1106.37 456.49 1172.46 469.857C1241.65 483.941 1304.88 474.984 1361.55 458.893C1369.24 456.785 1376.83 454.394 1384.28 452.115C1431.61 437.086 1478.17 417.106 1531.55 397.982C1548.75 391.88 1566.53 385.593 1584.91 379.931C1660.79 356.416 1754.61 347.469 1799 370.047" stroke="url(#paint22_linear_802_3327)" stroke-miterlimit="10"/>
<path opacity="0.5" d="M-127 668.978C-3.69227 545.72 210.718 521.761 359.622 613.059C415.157 647.353 465.725 696.925 531.614 702.47C596.102 708.08 654.141 668.38 698.234 620.737C709.056 608.999 719.28 596.636 728.667 584.285C756.965 547.253 784.282 507.525 816.503 475.77C838.59 453.972 863.441 435.936 891.466 425.354C919.335 414.883 947.56 412.129 977.532 414.335C1039.42 418.76 1105.02 448.065 1171.21 462.66C1240.07 477.915 1302.89 473.467 1359.68 462.091C1367.42 460.528 1375.03 458.945 1382.52 457.211C1430.21 446.26 1477.53 430.415 1531.65 413.676C1549.01 408.268 1566.97 402.676 1585.44 397.294C1661.78 375.313 1754.34 363.625 1799 378.992" stroke="url(#paint23_linear_802_3327)" stroke-miterlimit="10"/>
<path opacity="0.5" d="M-124 695.341C-2.9046 568.964 211.26 540.075 363.027 628.196C419.459 661.205 471.467 709.601 537.572 713.707C602.276 717.878 659.654 676.929 702.601 628.488C713.191 616.424 723.026 603.845 732.181 591.167C759.624 553.267 785.64 512.869 816.659 479.8C837.872 457.294 861.773 438.142 889.181 426.102C916.296 414.155 944.235 409.603 974.153 410.323C1036.25 411.554 1103.12 438.944 1169.25 454.775C1237.93 471.246 1300.09 471.139 1356.96 464.605C1364.74 463.717 1372.39 462.81 1379.94 461.619C1427.97 454.739 1476.05 443.016 1530.77 428.626C1548.3 424.037 1566.44 419.001 1585.12 414.044C1661.91 393.57 1753.2 379.25 1798 387.258" stroke="url(#paint24_linear_802_3327)" stroke-miterlimit="10"/>
<path opacity="0.5" d="M-120 721.839C-1.12261 592.843 212.783 559.139 367.288 643.583C424.748 675.197 478.194 722.227 544.511 724.877C609.291 727.573 666.259 685.706 707.96 636.376C718.298 624.165 727.742 611.421 736.664 598.468C763.232 559.979 787.966 518.938 817.624 484.797C837.847 461.52 861.069 441.368 887.702 428.031C914.198 414.674 941.694 408.454 971.576 407.555C1033.87 405.587 1101.86 431.067 1168.06 448.089C1236.42 465.69 1298.02 470.075 1355.17 468.165C1362.98 467.957 1370.68 467.598 1378.25 467.219C1426.75 464.457 1475.45 456.882 1530.9 445.046C1548.72 441.183 1566.9 436.834 1585.68 432.171C1662.81 413.132 1752.94 396.256 1798 397.025" stroke="url(#paint25_linear_802_3327)" stroke-miterlimit="10"/>
<path opacity="0.5" d="M-117 748C-0.470732 616.102 213.306 577.672 370.691 658.643C429.184 688.93 483.935 734.674 550.467 735.878C615.443 737.258 671.751 694.218 712.346 643.918C722.45 631.405 731.643 618.489 740.176 605.343C765.871 566.187 789.186 524.4 817.78 489.028C837.129 465.084 859.537 443.871 885.281 429.06C911.004 414.38 938.097 406.219 968.082 403.721C1030.58 398.557 1099.81 422.204 1165.84 440.41C1233.87 459.176 1295.07 468.074 1352.32 470.887C1360.16 471.356 1367.9 471.675 1375.52 471.841C1424.39 473.165 1473.96 469.752 1530.03 460.29C1548 457.257 1566.52 453.362 1585.38 449.112C1662.95 431.618 1751.82 412.136 1797 405.664" stroke="url(#paint26_linear_802_3327)" stroke-miterlimit="10"/>
<path opacity="0.5" d="M-114 775C0.515333 640.203 214.16 596.886 374.377 674.383C433.798 703.331 489.999 747.952 556.782 747.708C621.873 747.622 677.687 703.417 717.019 652.376C726.741 639.667 735.706 626.445 744.01 612.992C768.865 573.028 790.891 530.634 818.278 494.132C836.784 469.385 858.255 447.086 883.374 430.966C908.357 414.827 935.16 405.005 965.127 400.889C1027.88 392.394 1098.27 414.192 1164.42 433.629C1232.29 453.586 1292.86 466.829 1350.37 474.517C1358.14 475.513 1366.05 476.529 1373.71 477.373C1422.94 482.783 1473.32 483.516 1530.01 476.427C1548.17 474.089 1566.87 470.89 1585.81 467.054C1663.88 451.101 1751.53 428.874 1797 415.176" stroke="url(#paint27_linear_802_3327)" stroke-miterlimit="10"/>
<path opacity="0.5" d="M-110 801C2.14922 663.184 215.648 614.968 378.7 689.184C439.143 716.828 496.64 760.198 563.627 758.506C628.923 756.971 684.049 711.685 722.268 659.63C731.755 646.607 740.331 633.181 748.381 619.545C772.222 578.859 793.099 535.724 819.143 497.917C836.793 472.351 857.447 448.971 881.672 431.362C906.033 413.772 932.41 402.13 962.318 396.522C1025.29 384.686 1096.88 404.8 1162.98 425.459C1230.53 446.598 1290.66 464.371 1348.29 476.664C1356.1 478.339 1364.05 480.034 1371.89 481.445C1421.47 490.95 1472.59 495.831 1530.02 491.134C1548.46 489.644 1567.21 486.989 1586.38 483.451C1664.89 469.033 1751.25 444.178 1797 423.104" stroke="url(#paint28_linear_802_3327)" stroke-miterlimit="10"/>
<path opacity="0.5" d="M-107 827C2.91268 686.657 216.156 633.645 382.081 704.266C443.553 730.539 502.351 772.553 569.687 769.437C635.039 766.569 689.638 720.203 726.729 667.396C735.964 654.221 744.305 640.515 751.967 626.709C774.934 585.423 794.527 541.631 819.369 502.634C836.146 476.443 855.849 452.022 879.455 433.007C903.062 413.991 929.132 400.711 959.005 393.493C1022.17 378.481 1094.88 396.709 1161.08 418.428C1228.46 440.586 1287.91 462.801 1345.76 479.947C1353.6 482.297 1361.47 484.516 1369.47 486.753C1419.39 500.326 1471.25 509.343 1529.28 507.158C1547.89 506.367 1566.83 504.282 1586.07 501.164C1665.03 488.314 1750.13 460.762 1796 432.483" stroke="url(#paint29_linear_802_3327)" stroke-miterlimit="10"/>
<path opacity="0.5" d="M-103 854C4.58714 710.45 217.567 652.624 386.375 719.853C448.744 744.81 508.982 785.607 576.535 781.038C642.104 776.719 696.16 729.274 732.01 675.411C741.01 661.916 748.964 648.001 756.394 633.876C778.507 591.74 796.801 547.3 820.285 507.114C836.072 480.074 854.962 454.561 877.932 434.218C900.786 413.723 926.57 398.634 956.389 389.92C1019.78 371.558 1093.75 387.841 1159.87 411.054C1226.95 434.275 1285.97 461.167 1343.8 483.041C1351.68 486.073 1359.57 488.972 1367.63 491.759C1417.9 509.437 1470.53 522.613 1529.28 522.821C1548.05 522.86 1567.32 521.358 1586.64 518.651C1666.05 507.332 1749.88 477.137 1796 441.593" stroke="url(#paint30_linear_802_3327)" stroke-miterlimit="10"/>
<path opacity="0.5" d="M-100 880C5.5184 733.755 218.265 671.119 389.809 734.907C453.213 758.509 514.758 797.972 582.531 791.961C648.183 786.181 701.719 737.636 736.308 682.979C744.922 669.309 752.643 655.106 759.821 640.825C781.062 598.072 798.076 552.957 820.36 511.565C835.275 483.891 853.374 457.215 875.435 435.553C897.537 413.627 923.038 396.767 952.805 386.576C1016.43 364.906 1091.63 379.469 1157.7 403.859C1224.59 428.238 1282.94 459.571 1341.04 486.032C1348.97 489.605 1356.9 493.179 1364.99 496.641C1415.6 518.515 1469.01 535.688 1528.51 538.29C1547.58 539.046 1566.89 538.223 1586.3 535.802C1666.18 526.04 1748.74 493.144 1795 450.398" stroke="url(#paint31_linear_802_3327)" stroke-miterlimit="10"/>
<path opacity="0.5" d="M-96 906C7.29673 757.005 219.776 689.552 394.297 749.963C458.706 772.349 521.686 810.512 589.666 803.06C655.508 795.971 708.378 746.298 741.838 690.85C750.219 676.889 757.686 662.529 764.495 647.937C784.861 604.556 800.592 558.756 821.516 516.261C835.577 487.814 852.842 460.235 874.148 437.139C895.474 413.91 920.55 395.257 950.417 383.477C1014.26 358.501 1090.55 371.33 1156.71 396.792C1223.28 422.313 1281.22 457.996 1339.41 489.284C1347.38 493.531 1355.35 497.778 1363.47 501.913C1414.55 527.87 1468.7 549.169 1528.66 554.253C1547.88 555.835 1567.37 555.578 1586.86 553.574C1667.18 545.364 1748.46 509.892 1795 459.837" stroke="url(#paint32_linear_802_3327)" stroke-miterlimit="10"/>
<path opacity="0.5" d="M-93 933C7.99649 780.825 220.441 708.518 397.785 765.542C463.119 786.621 527.567 823.586 595.794 814.672C661.744 806.101 714.095 755.312 746.463 698.791C754.595 684.633 761.678 670.053 768.257 655.131C787.622 610.983 802.215 564.391 821.948 520.565C835.142 491.398 851.484 462.555 872.027 438.091C892.746 413.384 917.412 392.885 947.374 379.614C1011.33 351.24 1089.01 362.409 1155.03 389.103C1221.44 415.857 1278.72 456.085 1337.2 492.048C1345.21 496.981 1353.24 501.782 1361.41 506.604C1412.85 536.698 1467.79 562.185 1528.52 569.675C1547.89 572.09 1567.6 572.267 1587.31 570.693C1668.12 564.015 1748.19 525.737 1795 468.358" stroke="url(#paint33_linear_802_3327)" stroke-miterlimit="10"/>
<path opacity="0.5" d="M-90 959C8.77352 804.111 220.989 726.942 401.249 780.342C467.62 800.087 533.377 835.755 601.826 825.395C667.997 815.377 719.693 763.429 750.917 706.215C782.142 649.001 797.318 584.878 822.043 524.701C846.767 464.523 884.302 405.133 943.947 375.868C1008.11 344.3 1086.94 353.478 1153.02 381.524C1219.12 409.437 1275.86 454.152 1334.59 494.852C1393.19 535.533 1456.62 573.686 1527.75 584.975C1628.05 601.045 1735.77 557.38 1794 477.052" stroke="url(#paint34_linear_802_3327)" stroke-miterlimit="10"/>
</g>
<defs>
<linearGradient id="paint0_linear_802_3327" x1="-93" y1="924" x2="1607.64" y2="924" gradientUnits="userSpaceOnUse">
<stop stop-color="#66C8FF" stop-opacity="0.23"/>
<stop offset="0.855" stop-color="#0070D6"/>
</linearGradient>
<linearGradient id="paint1_linear_802_3327" x1="-97" y1="900" x2="1616.23" y2="900" gradientUnits="userSpaceOnUse">
<stop stop-color="#66C8FF" stop-opacity="0.23"/>
<stop offset="0.855" stop-color="#0070D6"/>
</linearGradient>
<linearGradient id="paint2_linear_802_3327" x1="-101" y1="876" x2="1623.84" y2="876" gradientUnits="userSpaceOnUse">
<stop stop-color="#66C8FF" stop-opacity="0.23"/>
<stop offset="0.855" stop-color="#0070D6"/>
</linearGradient>
<linearGradient id="paint3_linear_802_3327" x1="-104" y1="853" x2="1632.46" y2="853" gradientUnits="userSpaceOnUse">
<stop stop-color="#66C8FF" stop-opacity="0.23"/>
<stop offset="0.855" stop-color="#0070D6"/>
</linearGradient>
<linearGradient id="paint4_linear_802_3327" x1="-108" y1="830" x2="1640.07" y2="830" gradientUnits="userSpaceOnUse">
<stop stop-color="#66C8FF" stop-opacity="0.23"/>
<stop offset="0.855" stop-color="#0070D6"/>
</linearGradient>
<linearGradient id="paint5_linear_802_3327" x1="-111" y1="807" x2="1648.69" y2="807" gradientUnits="userSpaceOnUse">
<stop stop-color="#66C8FF" stop-opacity="0.23"/>
<stop offset="0.855" stop-color="#0070D6"/>
</linearGradient>
<linearGradient id="paint6_linear_802_3327" x1="-115" y1="786" x2="1656.3" y2="786" gradientUnits="userSpaceOnUse">
<stop stop-color="#66C8FF" stop-opacity="0.23"/>
<stop offset="0.855" stop-color="#0070D6"/>
</linearGradient>
<linearGradient id="paint7_linear_802_3327" x1="-119" y1="765" x2="1664.88" y2="765" gradientUnits="userSpaceOnUse">
<stop stop-color="#66C8FF" stop-opacity="0.23"/>
<stop offset="0.855" stop-color="#0070D6"/>
</linearGradient>
<linearGradient id="paint8_linear_802_3327" x1="-122" y1="745" x2="1673.5" y2="745" gradientUnits="userSpaceOnUse">
<stop stop-color="#66C8FF" stop-opacity="0.23"/>
<stop offset="0.855" stop-color="#0070D6"/>
</linearGradient>
<linearGradient id="paint9_linear_802_3327" x1="-126" y1="726" x2="1682.08" y2="726" gradientUnits="userSpaceOnUse">
<stop stop-color="#66C8FF" stop-opacity="0.23"/>
<stop offset="0.855" stop-color="#0070D6"/>
</linearGradient>
<linearGradient id="paint10_linear_802_3327" x1="-129" y1="709" x2="1689.73" y2="709" gradientUnits="userSpaceOnUse">
<stop stop-color="#66C8FF" stop-opacity="0.23"/>
<stop offset="0.855" stop-color="#0070D6"/>
</linearGradient>
<linearGradient id="paint11_linear_802_3327" x1="-133" y1="694" x2="1698.31" y2="694" gradientUnits="userSpaceOnUse">
<stop stop-color="#66C8FF" stop-opacity="0.23"/>
<stop offset="0.855" stop-color="#0070D6"/>
</linearGradient>
<linearGradient id="paint12_linear_802_3327" x1="-137" y1="679" x2="1706.9" y2="679" gradientUnits="userSpaceOnUse">
<stop stop-color="#66C8FF" stop-opacity="0.23"/>
<stop offset="0.855" stop-color="#0070D6"/>
</linearGradient>
<linearGradient id="paint13_linear_802_3327" x1="-140" y1="666" x2="1714.54" y2="666" gradientUnits="userSpaceOnUse">
<stop stop-color="#66C8FF" stop-opacity="0.23"/>
<stop offset="0.855" stop-color="#0070D6"/>
</linearGradient>
<linearGradient id="paint14_linear_802_3327" x1="-144" y1="653" x2="1722.16" y2="653" gradientUnits="userSpaceOnUse">
<stop stop-color="#66C8FF" stop-opacity="0.23"/>
<stop offset="0.855" stop-color="#0070D6"/>
</linearGradient>
<linearGradient id="paint15_linear_802_3327" x1="-147" y1="640" x2="1730.77" y2="640" gradientUnits="userSpaceOnUse">
<stop stop-color="#66C8FF" stop-opacity="0.23"/>
<stop offset="0.855" stop-color="#0070D6"/>
</linearGradient>
<linearGradient id="paint16_linear_802_3327" x1="-151" y1="628" x2="1739.36" y2="628" gradientUnits="userSpaceOnUse">
<stop stop-color="#66C8FF" stop-opacity="0.23"/>
<stop offset="0.855" stop-color="#0070D6"/>
</linearGradient>
<linearGradient id="paint17_linear_802_3327" x1="-148" y1="639" x2="1738.48" y2="639" gradientUnits="userSpaceOnUse">
<stop stop-color="#66C8FF" stop-opacity="0.23"/>
<stop offset="0.855" stop-color="#0070D6"/>
</linearGradient>
<linearGradient id="paint18_linear_802_3327" x1="-144" y1="649" x2="1738.61" y2="649" gradientUnits="userSpaceOnUse">
<stop stop-color="#66C8FF" stop-opacity="0.23"/>
<stop offset="0.855" stop-color="#0070D6"/>
</linearGradient>
<linearGradient id="paint19_linear_802_3327" x1="-141" y1="660" x2="1737.74" y2="660" gradientUnits="userSpaceOnUse">
<stop stop-color="#66C8FF" stop-opacity="0.23"/>
<stop offset="0.855" stop-color="#0070D6"/>
</linearGradient>
<linearGradient id="paint20_linear_802_3327" x1="-137" y1="671" x2="1737.87" y2="671" gradientUnits="userSpaceOnUse">
<stop stop-color="#66C8FF" stop-opacity="0.23"/>
<stop offset="0.855" stop-color="#0070D6"/>
</linearGradient>
<linearGradient id="paint21_linear_802_3327" x1="-134" y1="681" x2="1737" y2="681" gradientUnits="userSpaceOnUse">
<stop stop-color="#66C8FF" stop-opacity="0.23"/>
<stop offset="0.855" stop-color="#0070D6"/>
</linearGradient>
<linearGradient id="paint22_linear_802_3327" x1="-131" y1="692" x2="1737.09" y2="692" gradientUnits="userSpaceOnUse">
<stop stop-color="#66C8FF" stop-opacity="0.23"/>
<stop offset="0.855" stop-color="#0070D6"/>
</linearGradient>
<linearGradient id="paint23_linear_802_3327" x1="-127" y1="703" x2="1737.22" y2="703" gradientUnits="userSpaceOnUse">
<stop stop-color="#66C8FF" stop-opacity="0.23"/>
<stop offset="0.855" stop-color="#0070D6"/>
</linearGradient>
<linearGradient id="paint24_linear_802_3327" x1="-124" y1="714" x2="1736.35" y2="714" gradientUnits="userSpaceOnUse">
<stop stop-color="#66C8FF" stop-opacity="0.23"/>
<stop offset="0.855" stop-color="#0070D6"/>
</linearGradient>
<linearGradient id="paint25_linear_802_3327" x1="-120" y1="725" x2="1736.48" y2="725" gradientUnits="userSpaceOnUse">
<stop stop-color="#66C8FF" stop-opacity="0.23"/>
<stop offset="0.855" stop-color="#0070D6"/>
</linearGradient>
<linearGradient id="paint26_linear_802_3327" x1="-117" y1="748" x2="1735.61" y2="748" gradientUnits="userSpaceOnUse">
<stop stop-color="#66C8FF" stop-opacity="0.23"/>
<stop offset="0.855" stop-color="#0070D6"/>
</linearGradient>
<linearGradient id="paint27_linear_802_3327" x1="-114" y1="775" x2="1735.7" y2="775" gradientUnits="userSpaceOnUse">
<stop stop-color="#66C8FF" stop-opacity="0.23"/>
<stop offset="0.855" stop-color="#0070D6"/>
</linearGradient>
<linearGradient id="paint28_linear_802_3327" x1="-110" y1="801" x2="1735.83" y2="801" gradientUnits="userSpaceOnUse">
<stop stop-color="#66C8FF" stop-opacity="0.23"/>
<stop offset="0.855" stop-color="#0070D6"/>
</linearGradient>
<linearGradient id="paint29_linear_802_3327" x1="-107" y1="827" x2="1734.96" y2="827" gradientUnits="userSpaceOnUse">
<stop stop-color="#66C8FF" stop-opacity="0.23"/>
<stop offset="0.855" stop-color="#0070D6"/>
</linearGradient>
<linearGradient id="paint30_linear_802_3327" x1="-103" y1="854" x2="1735.09" y2="854" gradientUnits="userSpaceOnUse">
<stop stop-color="#66C8FF" stop-opacity="0.23"/>
<stop offset="0.855" stop-color="#0070D6"/>
</linearGradient>
<linearGradient id="paint31_linear_802_3327" x1="-100" y1="880" x2="1734.22" y2="880" gradientUnits="userSpaceOnUse">
<stop stop-color="#66C8FF" stop-opacity="0.23"/>
<stop offset="0.855" stop-color="#0070D6"/>
</linearGradient>
<linearGradient id="paint32_linear_802_3327" x1="-96" y1="906" x2="1734.35" y2="906" gradientUnits="userSpaceOnUse">
<stop stop-color="#66C8FF" stop-opacity="0.23"/>
<stop offset="0.855" stop-color="#0070D6"/>
</linearGradient>
<linearGradient id="paint33_linear_802_3327" x1="-93" y1="933" x2="1734.44" y2="933" gradientUnits="userSpaceOnUse">
<stop stop-color="#66C8FF" stop-opacity="0.23"/>
<stop offset="0.855" stop-color="#0070D6"/>
</linearGradient>
<linearGradient id="paint34_linear_802_3327" x1="-90" y1="959" x2="1733.57" y2="959" gradientUnits="userSpaceOnUse">
<stop stop-color="#66C8FF" stop-opacity="0.23"/>
<stop offset="0.855" stop-color="#0070D6"/>
</linearGradient>
<clipPath id="clip0_802_3327">
<rect width="1440" height="936" fill="white"/>
</clipPath>
</defs>
</svg>
