<svg xmlns="http://www.w3.org/2000/svg" width="158" height="136" fill="none"><path fill="url(#a)" d="M145.714 16.917v36.992H158v12.33h-36.858V53.91h12.286V16.917h-12.286V4.587H158v12.33h-12.286Z"/><path fill="url(#b)" d="M127.588 86.677H90.73v-12.33h36.858v12.33ZM90.73 111.34V136H78.444V86.677H90.73v12.331h36.858v-12.33h12.286V136h-12.286v-24.661H90.73Z"/><path fill="url(#c)" d="M43.068 12.33h12.286v12.331H43.068v36.992H30.782V0h12.286v12.33ZM79.926 0h12.286v61.653H79.926V24.661H67.64v-12.33h12.286V0ZM55.354 36.992v-12.33H67.64v12.33H55.354Z"/><path fill="url(#d)" d="M12.286 79.19h12.286v12.33H12.286v36.993H0V66.86h12.286v12.33Zm36.858-12.33H61.43v61.653H49.144V91.521H36.858V79.19h12.286V66.86Zm-24.572 36.992V91.521h12.286v12.331H24.572Z"/><defs><linearGradient id="a" x1="121.142" x2="156.818" y1="66.24" y2="66.24" gradientUnits="userSpaceOnUse"><stop stop-color="#66C8FF"/><stop offset="1" stop-color="#0070D6"/></linearGradient><linearGradient id="b" x1="78.444" x2="137.904" y1="136" y2="136" gradientUnits="userSpaceOnUse"><stop stop-color="#66C8FF"/><stop offset="1" stop-color="#0070D6"/></linearGradient><linearGradient id="c" x1="30.782" x2="90.242" y1="61.653" y2="61.653" gradientUnits="userSpaceOnUse"><stop stop-color="#66C8FF"/><stop offset="1" stop-color="#0070D6"/></linearGradient><linearGradient id="d" x1="0" x2="59.46" y1="128.513" y2="128.513" gradientUnits="userSpaceOnUse"><stop stop-color="#66C8FF"/><stop offset="1" stop-color="#0070D6"/></linearGradient></defs></svg>